<svg width="42" height="39" viewBox="0 0 42 39" fill="none" xmlns="http://www.w3.org/2000/svg">
<path fill-rule="evenodd" clip-rule="evenodd" d="M6.32593 21.7907L8.50554 12.796C8.99541 11.1231 10.7561 10.1581 12.4446 10.6525C12.9798 10.8092 13.4417 11.0946 13.8056 11.4697C14.4371 10.0423 16.0507 9.2672 17.5999 9.72084C18.1335 9.87831 18.5956 10.1637 18.9615 10.5357C19.5946 9.11119 21.2074 8.33464 22.7551 8.78909C23.279 8.94248 23.7325 9.2193 24.0943 9.58035L25.2609 5.5961C25.7507 3.92326 27.5115 2.95822 29.2 3.45263C30.8743 3.94166 31.8379 5.70318 31.3474 7.37823L26.8654 22.6856L33.2382 20.3966C34.9479 19.7559 36.8977 20.4794 37.7747 22.0826C38.4322 23.2845 37.9891 24.7976 36.7871 25.4552L23.0831 32.9516C20.948 34.1196 18.4861 34.3862 16.1501 33.7022L12.6134 32.6665C10.2803 31.9846 8.35325 30.4329 7.18692 28.3007C6.0977 26.3096 5.7921 23.9975 6.32593 21.7907ZM13.0788 31.0769L16.6156 32.1124C18.5267 32.672 20.5411 32.4538 22.2881 31.4981L35.9921 24.0017C36.3933 23.7822 36.5407 23.2786 36.3213 22.8775C35.8379 21.9937 34.7623 21.5946 33.808 21.9523L25.9815 24.7623L24.863 23.63L29.7578 6.91272C29.9915 6.11457 29.532 5.27449 28.7217 5.03606C28.3223 4.92029 27.9129 4.97618 27.5742 5.16144C27.2356 5.3467 26.9677 5.66128 26.8505 6.06152L23.5568 17.3105C23.5435 17.3559 23.5265 17.3995 23.5064 17.4408L23.1141 18.755L21.5172 18.2782L22.2323 15.8827L22.2475 15.8873L23.3128 12.2492C23.5464 11.4511 23.0877 10.6124 22.276 10.3748C21.4801 10.1417 20.6386 10.602 20.4055 11.398L19.0599 15.9938C19.0496 16.0288 19.0372 16.0626 19.0229 16.0952L18.5844 17.564L16.9875 17.0873L17.7026 14.6917L17.7141 14.6952L18.1575 13.1809C18.3912 12.3827 17.9325 11.5441 17.1208 11.3065C16.3249 11.0734 15.4833 11.5337 15.2502 12.3297L15.0144 13.1353L15.0456 13.1446L14.2053 15.9598L12.6084 15.4831L12.9431 14.3616C12.9481 14.3111 12.9578 14.2604 12.9726 14.2099L13.0009 14.1133C13.1142 13.7266 13.0702 13.3182 12.877 12.965C12.6838 12.6118 12.3659 12.3551 11.9657 12.238C11.1668 12.0066 10.3304 12.4659 10.1049 13.2238L7.93492 22.1812C7.49981 23.9848 7.74903 25.8764 8.64028 27.5057C9.59435 29.2498 11.1699 30.5179 13.0788 31.0769Z" fill="white"/>
</svg>
