<svg width="123" height="123" viewBox="0 0 123 123" fill="none" xmlns="http://www.w3.org/2000/svg">
<path fill-rule="evenodd" clip-rule="evenodd" d="M72.5576 63.9084L120.426 76.7346L120.037 78.1835L72.45 65.4325L110.781 81.2018L110.21 82.589L71.6005 66.705L114.48 91.4612L113.73 92.7603L71.0569 68.1232L104.009 93.2824L103.099 94.4746L69.9073 69.1327L104.924 104.15L103.864 105.21L69.0172 70.3639L94.3397 103.201L93.1519 104.117L67.6529 71.0511L92.4099 113.932L91.1109 114.682L66.4796 72.0188L82.4338 110.275L81.0493 110.852L66.1529 75.1326L78.1847 120.036L76.7358 120.424L64.6683 75.3873L69.83 113.879L68.3434 114.079L62.4704 70.2837L62.4704 122.355L60.9704 122.355L60.9704 73.1334L55.6569 114.258L54.1692 114.066L59.914 69.604L46.2966 120.425L44.8478 120.036L56.7679 75.5499L42.2055 110.947L40.8183 110.377L56.7111 71.7452L31.922 114.681L30.6229 113.931L56.8206 68.5556L29.7462 104.016L28.554 103.106L52.0564 72.3237L19.1696 105.21L18.1089 104.15L52.8899 69.3689L20.0774 94.6724L19.1614 93.4846L52.2654 67.9562L9.30364 92.7602L8.55363 91.4612L51.135 66.8769L12.9087 82.8185L12.3313 81.4341L50.9185 65.3419L2.99562 78.1828L2.60739 76.7339L50.0615 64.0186L9.05013 69.5183L8.85077 68.0316L50.348 62.4668L0.676032 62.4668L0.676032 60.9668L49.7908 60.9668L8.76842 55.6664L8.96063 54.1788L50.4636 59.5412L2.50106 46.6897L2.88929 45.2408L50.3174 57.9492L12.0796 42.2182L12.6503 40.831L51.3897 56.7683L8.34938 31.919L9.09938 30.6199L51.6153 55.1665L18.7602 30.0813L19.6705 28.889L52.9569 54.3036L17.821 19.1677L18.8817 18.107L53.5915 52.8169L28.3536 20.0894L29.5414 19.1734L55.1182 52.3402L30.2696 9.30128L31.5686 8.55128L56.121 51.0772L40.2069 12.917L41.5913 12.3397L58.888 53.8151L45.242 2.8877L46.6909 2.49947L60.0827 52.4783L54.2401 8.90948L55.7268 8.71011L60.9704 47.8123L60.9704 0.672847L62.4704 0.672847L62.4704 49.8181L67.7663 8.8302L69.254 9.02241L64.2811 47.51L76.3415 2.49997L77.7904 2.8882L64.2512 53.4173L81.1891 12.2458L82.5763 12.8164L66.6478 51.5344L91.4642 8.55105L92.7633 9.30105L69.7773 49.114L92.9474 18.7673L94.1396 19.6776L66.8854 55.3734L104.152 18.1072L105.212 19.1679L70.4369 53.9432L103.189 28.6862L104.105 29.8741L70.9763 55.4215L113.934 30.6199L114.684 31.9189L72.0765 56.5183L110.267 40.5916L110.844 41.9761L72.236 58.077L120.144 45.2401L120.532 46.689L72.9705 59.4331L114.02 53.9283L114.219 55.415L72.8194 60.9668L122.359 60.9668L122.359 62.4668L73.106 62.4668L114.196 67.7759L114.004 69.2635L72.5576 63.9084Z" fill="#C6983C"/>
</svg>
