<svg width="195" height="195" viewBox="0 0 195 195" fill="none" xmlns="http://www.w3.org/2000/svg">
<path d="M74.6359 184.171C76.2338 179.742 74.9202 176.383 70.9107 174.92C66.5706 173.336 63.8163 175.071 62.6813 178.217C61.5911 181.238 62.9192 184.299 66.1226 185.467C68.8507 186.463 71.2461 185.463 72.7312 182.773L73.5579 183.075L72.0592 184.636C70.8842 186.596 69.2708 187.178 66.2435 186.753C63.2369 186.335 60.1912 186.09 58.7664 188.872L62.4865 190.23C62.9562 189.511 63.7801 189.367 66.6622 189.482C70.3986 189.627 73.0679 188.517 74.6359 184.171ZM71.8817 181.433C71.2769 183.109 69.8961 183.566 68.036 182.887C66.1759 182.208 65.4281 180.975 66.0329 179.299C66.6377 177.623 68.0053 177.138 69.8654 177.817C71.7254 178.496 72.4865 179.757 71.8817 181.433Z" fill="white"/>
<path d="M47.7218 170.762C49.7034 168.318 49.9354 164.924 46.6352 162.217C43.6583 159.776 40.6527 160.583 39.471 161.691L42.1928 163.923C42.8895 163.413 43.8811 163.658 44.8338 164.439C46.3818 165.708 46.5281 166.995 45.7244 167.986L39.2091 162.643L38.5162 163.497C36.396 166.111 36.9785 169.235 39.6493 171.425C42.32 173.616 45.5046 173.496 47.7218 170.762ZM44.4772 169.524C43.9506 170.173 42.9647 170.446 41.4507 169.204C39.9367 167.962 39.987 166.922 40.5136 166.273L44.4772 169.524Z" fill="white"/>
<path d="M27.1195 151.596C30.2585 149.604 30.6595 146.353 28.7764 143.353C27.1623 140.781 24.2956 139.318 21.539 140.885L23.4104 143.867C24.3164 143.448 25.4275 143.811 26.176 145.003C27.0649 146.42 26.6969 147.695 25.2481 148.615C23.8179 149.523 22.5142 149.308 21.6253 147.892C20.8768 146.699 21.0287 145.535 21.7944 144.892L19.923 141.911C17.3302 143.739 17.4109 146.971 19.0249 149.542C20.908 152.542 23.999 153.577 27.1195 151.596Z" fill="white"/>
<path d="M5.40508 117.005L8.27905 128.532L11.2656 127.779L10.2544 123.723L18.0407 121.76L17.1892 118.345L9.40284 120.308L8.39162 116.252L5.40508 117.005Z" fill="white"/>
<path d="M15.0399 87.1768L3.96957 86.2384L3.39313 93.1002L13.3858 96.3539L13.3122 97.2308L11.3945 96.4059L3.17397 95.709L2.8793 99.2167L13.9496 100.155L14.526 93.2933L4.53334 90.0396L4.60701 89.1627L6.41508 89.9783L14.7452 90.6845L15.0399 87.1768Z" fill="white"/>
<path d="M11.5284 59.1617L9.2004 64.6744C8.36164 66.6605 8.32907 68.9431 10.6153 69.9194C12.7397 70.8266 13.8439 70.0781 14.6313 68.8355L15.6749 70.549L15.0159 72.1096L17.6461 73.2328L18.2795 71.733C18.6646 70.821 18.5977 70.0748 18.0599 69.1992L15.9875 65.8503L16.3299 65.0396L20.3764 66.7676L21.7457 63.5249L11.5284 59.1617ZM14.1043 64.0892L13.4881 65.5485C13.0173 66.6631 12.6524 66.9618 11.9847 66.6767C11.3373 66.4002 11.2976 65.9288 11.7683 64.8141L12.3845 63.3549L14.1043 64.0892Z" fill="white"/>
<path d="M30.6468 37.1674C33.7039 40.7478 37.2594 41.253 40.4899 38.4638C43.9868 35.4445 43.8307 32.1786 41.6593 29.6355C39.5737 27.1928 36.2705 26.8476 33.6894 29.0761C31.4913 30.974 31.1854 33.5633 32.7905 36.1885L32.1244 36.7636L31.5048 34.6827C30.3807 32.6886 30.6656 30.9894 32.516 28.5488C34.3497 26.1227 36.0525 23.5771 34.338 20.9592L31.3406 23.5471C31.7336 24.3123 31.4555 25.1047 29.9454 27.5711C27.9907 30.7702 27.6468 33.6539 30.6468 37.1674ZM34.3682 36.1051C33.2111 34.7499 33.4913 33.3163 34.99 32.0223C36.4887 30.7284 37.9236 30.6811 39.0807 32.0363C40.2379 33.3915 39.9886 34.8275 38.4899 36.1214C36.9912 37.4154 35.5253 37.4603 34.3682 36.1051Z" fill="white"/>
<path d="M55.466 20.1465C56.6081 23.0779 59.4361 24.943 63.407 23.3786C66.9891 21.9673 67.7695 18.9406 67.3912 17.3635L64.1162 18.6538C64.215 19.5134 63.515 20.2621 62.3688 20.7137C60.5061 21.4475 59.319 20.9458 58.8558 19.7568L66.6953 16.6682L66.296 15.6433C65.074 12.5069 62.0797 11.4876 58.8661 12.7536C55.6525 14.0197 54.1881 16.8666 55.466 20.1465ZM58.137 17.9119C57.8335 17.1329 58.0826 16.1362 59.9044 15.4185C61.7261 14.7008 62.6027 15.254 62.9062 16.0329L58.137 17.9119Z" fill="white"/>
<path d="M82.191 11.4823C82.375 15.1957 85.0042 17.1346 88.5418 16.9573C91.574 16.8054 94.2608 15.0187 94.2579 11.8469L90.7423 12.023C90.6594 13.0184 89.7956 13.8106 88.3893 13.8811C86.7194 13.9648 85.7915 13.02 85.7066 11.3061C85.6228 9.6142 86.4527 8.58137 88.1226 8.4977C89.5288 8.42723 90.4667 9.12918 90.6475 10.1114L94.1631 9.9352C93.8525 6.77879 91.0023 5.26954 87.9701 5.42147C84.4326 5.59873 82.0081 7.79081 82.191 11.4823Z" fill="white"/>
<path d="M122.883 9.47997L111.431 6.32228L110.62 9.2938L114.65 10.4048L112.538 18.152L115.931 19.0876L118.044 11.3405L122.073 12.4515L122.883 9.47997Z" fill="white"/>
<path d="M144.006 32.5517L150.232 23.3501L144.548 19.4617L136.837 26.5804L136.11 26.0835L137.765 24.8163L142.388 17.9834L139.483 15.9957L133.257 25.1973L138.94 29.0857L146.652 21.967L147.378 22.464L145.785 23.6401L141.1 30.564L144.006 32.5517Z" fill="white"/>
<path d="M169.934 43.2598L166.297 38.5079C164.987 36.7958 163.025 35.6438 161.059 37.1653C159.232 38.5792 159.34 39.9145 160.031 41.2156L158.035 41.2861L157.005 39.9409L154.744 41.6914L155.733 42.9842C156.335 43.7704 157.014 44.079 158.036 44.039L161.954 43.8726L162.489 44.5714L159.009 47.2644L161.148 50.0597L169.934 43.2598ZM164.402 43.0902L163.44 41.8324C162.704 40.8715 162.624 40.4049 163.198 39.9606C163.755 39.5297 164.183 39.727 164.918 40.6878L165.881 41.9457L164.402 43.0902Z" fill="white"/>
<path d="M181.015 73.7774C176.371 74.5516 174.089 77.341 174.783 81.5521C175.535 86.1106 178.399 87.6626 181.698 87.1127C184.866 86.5845 186.881 83.9289 186.326 80.5644C185.854 77.6991 183.806 76.1 180.733 76.1217L180.59 75.2535L182.686 75.7961C184.971 75.8612 186.271 76.9827 187.387 79.8299C188.499 82.6555 189.782 85.4303 192.906 85.3109L192.262 81.4037C191.405 81.3458 190.874 80.6982 189.559 78.1295C187.851 74.8012 185.572 73.0176 181.015 73.7774ZM179.982 77.5182C181.74 77.2252 182.816 78.2056 183.138 80.1592C183.46 82.1128 182.753 83.3682 180.995 83.6613C179.237 83.9543 178.143 82.9992 177.821 81.0456C177.499 79.092 178.224 77.8113 179.982 77.5182Z" fill="white"/>
<path d="M182.598 103.93C179.499 103.39 176.435 104.843 175.71 109.049C175.055 112.843 177.237 115.077 178.782 115.57L179.38 112.101C178.594 111.74 178.318 110.754 178.527 109.54C178.867 107.567 179.913 106.812 181.17 107.031L179.738 115.334L180.821 115.523C184.137 116.102 186.564 114.069 187.151 110.665C187.738 107.261 186.066 104.535 182.598 103.93ZM183.121 107.371C183.944 107.515 184.667 108.244 184.334 110.173C184.001 112.103 183.073 112.566 182.249 112.423L183.121 107.371Z" fill="white"/>
<path d="M176.116 131.39C172.849 129.614 169.834 130.856 168.158 133.976C166.721 136.65 166.859 139.88 169.569 141.528L171.235 138.427C170.428 137.838 170.198 136.687 170.864 135.446C171.655 133.974 172.942 133.671 174.45 134.49C175.938 135.299 176.392 136.547 175.6 138.02C174.934 139.26 173.85 139.697 172.917 139.341L171.251 142.442C174.108 143.819 176.869 142.165 178.306 139.49C179.983 136.37 179.363 133.154 176.116 131.39Z" fill="white"/>
<path d="M156.767 167.413L165.372 159.222L163.261 156.979L160.233 159.862L154.729 154.015L152.179 156.442L157.684 162.289L154.656 165.171L156.767 167.413Z" fill="white"/>
<path d="M126.179 173.655L130.77 183.771L137.029 180.899L134.98 170.583L135.78 170.216L135.998 172.295L139.408 179.807L142.607 178.339L138.015 168.222L131.757 171.094L133.806 181.41L133.006 181.777L132.833 179.799L129.378 172.186L126.179 173.655Z" fill="white"/>
<path d="M103.598 190.4L109.545 189.735C111.688 189.495 113.692 188.408 113.419 185.937C113.165 183.641 111.97 183.044 110.5 182.965L111.48 181.217L113.164 181.029L112.849 178.186L111.231 178.367C110.248 178.477 109.63 178.9 109.132 179.797L107.233 183.242L106.359 183.34L105.875 178.966L102.377 179.358L103.598 190.4ZM106.625 185.745L108.199 185.569C109.401 185.434 109.841 185.607 109.921 186.328C109.998 187.028 109.607 187.293 108.404 187.428L106.83 187.604L106.625 185.745Z" fill="white"/>
</svg>
