<svg width="195" height="193" viewBox="0 0 195 193" fill="none" xmlns="http://www.w3.org/2000/svg">
<path d="M190.885 95.8106C182.477 115.036 141.367 115.622 99.0634 97.1205C56.7601 78.6185 29.2829 48.0345 37.6914 28.8091" stroke="white" stroke-width="4"/>
<path d="M182.319 130.393C173.911 149.618 130.306 149.114 84.926 129.266C39.5456 109.418 9.57393 77.743 17.9824 58.5176" stroke="white" stroke-width="4"/>
<path d="M129.633 6.41413C146.522 19.9077 136.632 60.3623 107.542 96.772C78.4532 133.182 41.1803 151.759 24.291 138.265" stroke="white" stroke-width="4"/>
<path d="M161.101 24.987C177.991 38.4805 166.646 80.7558 135.762 119.411C104.879 158.067 66.151 178.465 49.2617 164.971" stroke="white" stroke-width="4"/>
<circle cx="101.446" cy="92.0033" r="89.7977" stroke="white" stroke-width="4"/>
</svg>
