<svg width="221" height="187" viewBox="0 0 221 187" fill="none" xmlns="http://www.w3.org/2000/svg">
<path fill-rule="evenodd" clip-rule="evenodd" d="M40.4834 139.723C32.8142 147.029 31.2201 158.993 37.2436 168.159C44.0212 178.474 57.877 181.341 68.1913 174.563C76.1714 169.319 79.6935 159.838 77.7399 151.039L176.551 86.1082C183.853 91.3929 193.953 91.9223 201.933 86.6785C212.247 79.9009 215.114 66.0451 208.336 55.7309C202.313 46.5642 190.699 43.2798 180.948 47.4201C188.618 40.1136 190.213 28.1494 184.189 18.9825C177.412 8.66823 163.556 5.80125 153.241 12.5789C145.261 17.8233 141.738 27.3057 143.693 36.106L44.8833 101.036C37.5815 95.7496 27.4807 95.2197 19.5002 100.464C9.18588 107.242 6.3189 121.097 13.0966 131.412C19.1199 140.578 30.7335 143.862 40.4834 139.723Z" fill="#C4C4C4"/>
<path fill-rule="evenodd" clip-rule="evenodd" d="M40.4837 139.722C32.8143 147.029 31.2201 158.993 37.2436 168.159C44.0212 178.474 57.877 181.341 68.1913 174.563C76.1714 169.319 79.6935 159.838 77.7399 151.039L176.551 86.108C183.853 91.3928 193.953 91.9221 201.933 86.6784C212.247 79.9007 215.114 66.045 208.336 55.7307C202.313 46.564 190.698 43.2796 180.948 47.4199C188.618 40.1134 190.213 28.1492 184.189 18.9823C177.411 8.66806 163.556 5.80108 153.241 12.5787C145.26 17.8232 141.738 27.3055 143.693 36.1059L44.8834 101.035C37.5816 95.7493 27.4807 95.2195 19.5001 100.464C9.18584 107.241 6.31885 121.097 13.0965 131.411C19.1199 140.578 30.7336 143.862 40.4837 139.722Z" fill="#EE000E"/>
<circle cx="55.8158" cy="156.387" r="3.96477" transform="rotate(-123.31 55.8158 156.387)" fill="#C6983C"/>
<circle cx="31.6713" cy="119.636" r="3.96477" transform="rotate(-123.31 31.6713 119.636)" fill="#C6983C"/>
<circle cx="189.562" cy="68.5012" r="3.96477" transform="rotate(-123.31 189.562 68.5012)" fill="#C6983C"/>
<circle cx="165.41" cy="31.7542" r="3.96477" transform="rotate(-123.31 165.41 31.7542)" fill="#C6983C"/>
<circle cx="110.624" cy="92.7723" r="3.96477" transform="rotate(-123.31 110.624 92.7723)" fill="black"/>
<circle cx="110.62" cy="92.7722" r="3.96477" transform="rotate(-33.3095 110.62 92.7722)" fill="#C6983C"/>
<circle cx="141.952" cy="72.1861" r="3.96477" transform="rotate(-33.3095 141.952 72.1861)" fill="#C6983C"/>
<circle cx="79.2993" cy="113.356" r="3.96477" transform="rotate(-33.3095 79.2993 113.356)" fill="#C6983C"/>
</svg>
