<svg width="285" height="285" viewBox="0 0 285 285" fill="none" xmlns="http://www.w3.org/2000/svg">
<path d="M244.154 101.153L244.154 184.153L45.1536 184.153L45.1536 101.153L244.154 101.153Z" fill="#C4C4C4"/>
<path fill-rule="evenodd" clip-rule="evenodd" d="M258.728 142.652C273.188 140.026 284.152 127.37 284.152 112.152C284.152 95.0315 270.273 81.1523 253.152 81.1523C239.905 81.1523 228.599 89.4615 224.161 101.152L60.1441 101.152C55.7059 89.4615 44.3995 81.1523 31.1523 81.1523C14.0315 81.1523 0.152343 95.0315 0.152342 112.152C0.152342 127.369 11.1154 140.024 25.5737 142.652C11.1151 145.279 0.151669 157.935 0.151668 173.151C0.151668 190.272 14.0308 204.151 31.1517 204.151C44.3984 204.151 55.7046 195.843 60.143 184.152L224.161 184.152C228.599 195.843 239.905 204.152 253.152 204.152C270.273 204.152 284.152 190.273 284.152 173.152C284.152 157.935 273.188 145.278 258.728 142.652Z" fill="#C4C4C4"/>
<path fill-rule="evenodd" clip-rule="evenodd" d="M284.152 112.152C284.152 127.369 273.188 140.026 258.728 142.652C273.187 145.278 284.151 157.934 284.151 173.151C284.151 190.272 270.272 204.151 253.151 204.151C239.905 204.151 228.599 195.843 224.16 184.153L184.152 184.153L184.152 224.162C195.843 228.6 204.153 239.906 204.153 253.154C204.153 270.275 190.274 284.154 173.153 284.154C157.935 284.154 145.279 273.189 142.653 258.729C140.027 273.189 127.37 284.154 112.153 284.154C95.032 284.154 81.1529 270.275 81.1529 253.154C81.1529 239.907 89.4618 228.601 101.152 224.162L101.152 184.153L60.1428 184.153C55.7044 195.843 44.3983 204.152 31.1515 204.152C14.0307 204.152 0.151542 190.273 0.151543 173.152C0.151543 157.935 11.1149 145.279 25.5736 142.652C11.1153 140.025 0.152186 127.369 0.152186 112.153C0.152187 95.0321 14.0314 81.1529 31.1522 81.1529C44.3993 81.1529 55.7058 89.4621 60.1439 101.153L101.152 101.153L101.152 60.1457C89.4626 55.7069 81.1545 44.4011 81.1545 31.1548C81.1545 14.034 95.0336 0.154776 112.154 0.154778C127.372 0.154779 140.029 11.12 142.655 25.5804C145.28 11.1202 157.937 0.155148 173.155 0.15515C190.276 0.155151 204.155 14.0343 204.155 31.1552C204.155 44.4033 195.844 55.7103 184.152 60.1478L184.152 101.153L224.16 101.153C228.598 89.4614 239.905 81.1515 253.152 81.1515C270.273 81.1515 284.152 95.0307 284.152 112.152Z" fill="#EE000E"/>
<circle cx="253.652" cy="111.652" r="5.5" transform="rotate(90 253.652 111.652)" fill="black"/>
<circle cx="253.652" cy="172.652" r="5.5" transform="rotate(90 253.652 172.652)" fill="black"/>
<circle cx="31.6523" cy="111.652" r="5.5" transform="rotate(90 31.6523 111.652)" fill="black"/>
<circle cx="31.6523" cy="172.652" r="5.5" transform="rotate(90 31.6523 172.652)" fill="black"/>
<circle cx="111.652" cy="253.651" r="5.5" transform="rotate(90 111.652 253.651)" fill="black"/>
<circle cx="172.652" cy="253.651" r="5.5" transform="rotate(90 172.652 253.651)" fill="black"/>
<circle cx="111.652" cy="31.6523" r="5.5" transform="rotate(90 111.652 31.6523)" fill="black"/>
<circle cx="141.652" cy="143.652" r="5.5" transform="rotate(90 141.652 143.652)" fill="black"/>
<circle cx="141.652" cy="195.651" r="5.5" transform="rotate(90 141.652 195.651)" fill="black"/>
<circle cx="141.652" cy="91.6533" r="5.5" transform="rotate(90 141.652 91.6533)" fill="black"/>
<circle cx="141.652" cy="143.652" r="5.5" transform="rotate(-180 141.652 143.652)" fill="black"/>
<circle cx="89.6523" cy="143.652" r="5.5" transform="rotate(-180 89.6523 143.652)" fill="black"/>
<circle cx="193.652" cy="143.652" r="5.5" transform="rotate(-180 193.652 143.652)" fill="black"/>
<circle cx="172.652" cy="31.6523" r="5.5" transform="rotate(90 172.652 31.6523)" fill="black"/>
</svg>
