<svg width="262" height="262" viewBox="0 0 262 262" fill="none" xmlns="http://www.w3.org/2000/svg">
<path fill-rule="evenodd" clip-rule="evenodd" d="M217.398 130.908C209.579 135.263 200.174 134.076 193.711 128.635L170.096 141.788L183.25 165.403C191.61 164.178 200.233 168.12 204.589 175.94C210.218 186.046 206.588 198.801 196.483 204.429C187.5 209.433 176.423 207.121 170.119 199.447C173.325 208.846 169.459 219.481 160.476 224.484C150.371 230.113 137.616 226.484 131.987 216.378C127.632 208.559 128.819 199.155 134.26 192.692L121.105 169.075L96.9 182.558C98.1237 190.917 94.1818 199.538 86.3629 203.893C76.2574 209.522 63.5022 205.893 57.8735 195.787C52.8706 186.806 55.1813 175.731 62.8526 169.427C53.4542 172.63 42.8213 168.765 37.8183 159.783C32.1895 149.677 35.8187 136.922 45.9243 131.293C53.7436 126.938 63.1492 128.125 69.6123 133.567L93.818 120.085L80.3363 95.8805C71.9776 97.103 63.3575 93.1612 59.0028 85.343C53.3741 75.2374 57.0033 62.4823 67.1088 56.8536C76.0919 51.85 87.1688 54.162 93.4723 61.8358C90.2669 52.4368 94.1324 41.8024 103.115 36.799C113.221 31.1703 125.976 34.7995 131.605 44.905C135.961 52.7254 134.772 62.1326 129.329 68.5958L142.809 92.7973L166.422 79.6447C165.198 71.2847 169.14 62.6624 176.959 58.307C187.065 52.6783 199.82 56.3075 205.448 66.413C210.452 75.3954 208.14 86.4711 200.468 92.775C209.867 89.57 220.501 93.4356 225.504 102.418C231.133 112.524 227.504 125.279 217.398 130.908Z" fill="#EE000E"/>
</svg>
