<svg width="151" height="151" viewBox="0 0 151 151" fill="none" xmlns="http://www.w3.org/2000/svg">
<path d="M111.8 46.8491L121.944 80.5377L41.1724 104.858L31.029 71.169L111.8 46.8491Z" fill="#C4C4C4"/>
<path fill-rule="evenodd" clip-rule="evenodd" d="M113.007 37.6316C107.63 39.2506 104.057 44.0053 103.684 49.2932L37.1134 69.3373C33.8833 65.1346 28.2787 63.1438 22.9019 64.7627C15.9528 66.8551 12.0156 74.1846 14.108 81.1337C15.9674 87.3094 21.9632 91.1063 28.1523 90.4064C22.6047 93.2397 19.7014 99.7164 21.5611 105.893C23.6534 112.842 30.983 116.779 37.9321 114.687C43.3087 113.068 46.8823 108.314 47.2552 103.026L113.827 82.9818C117.058 87.1839 122.662 89.1742 128.038 87.5554C134.987 85.463 138.924 78.1335 136.832 71.1844C134.972 65.0086 128.976 61.2117 122.787 61.9118C128.335 59.0785 131.238 52.6017 129.378 46.4256C127.286 39.4764 119.956 35.5393 113.007 37.6316Z" fill="#C4C4C4"/>
<path fill-rule="evenodd" clip-rule="evenodd" d="M103.685 49.2932C104.057 44.0053 107.631 39.2506 113.008 37.6316C119.957 35.5393 127.287 39.4764 129.379 46.4256C131.239 52.6017 128.336 59.0784 122.788 61.9117C128.977 61.2117 134.973 65.0086 136.833 71.1844C138.925 78.1335 134.988 85.463 128.039 87.5554C122.662 89.1742 117.058 87.1838 113.828 82.9818L97.5912 87.8707L102.481 104.11C107.768 104.483 112.522 108.056 114.141 113.433C116.234 120.382 112.297 127.712 105.347 129.804C99.172 131.663 92.6962 128.761 89.8623 123.215C90.5619 129.404 86.7651 135.399 80.5896 137.259C73.6405 139.351 66.3109 135.414 64.2186 128.465C62.5998 123.088 64.5902 117.484 68.7923 114.254L63.9026 98.0142L47.2559 103.026C46.883 108.314 43.3094 113.068 37.9328 114.687C30.9837 116.779 23.6541 112.842 21.5618 105.893C19.7022 99.7164 22.6054 93.2397 28.153 90.4064C21.9639 91.1063 15.9681 87.3094 14.1087 81.1337C12.0163 74.1846 15.9535 66.8551 22.9026 64.7627C28.2795 63.1438 33.884 65.1346 37.1142 69.3373L53.7591 64.3256L48.7473 47.6803C43.4595 47.3079 38.7049 43.7342 37.0859 38.3572C34.9935 31.4081 38.9307 24.0785 45.8798 21.9862C52.0552 20.1268 58.531 23.029 61.3649 28.5751C60.6654 22.3862 64.4622 16.3909 70.6376 14.5315C77.5867 12.4392 84.9163 16.3764 87.0086 23.3255C88.6274 28.7016 86.6372 34.3055 82.4356 37.5358L87.4477 54.1821L103.685 49.2932Z" fill="#C6983C"/>
<circle cx="116.94" cy="49.95" r="2.33137" transform="rotate(73.2432 116.94 49.95)" fill="black"/>
<circle cx="124.393" cy="74.7078" r="2.33137" transform="rotate(73.2432 124.393 74.7078)" fill="black"/>
<circle cx="26.8304" cy="77.081" r="2.33137" transform="rotate(73.2432 26.8304 77.081)" fill="black"/>
<circle cx="34.2874" cy="101.839" r="2.33137" transform="rotate(73.2432 34.2874 101.839)" fill="black"/>
<circle cx="76.6546" cy="124.94" r="2.33137" transform="rotate(73.2432 76.6546 124.94)" fill="black"/>
<circle cx="101.416" cy="117.485" r="2.33137" transform="rotate(73.2432 101.416 117.485)" fill="black"/>
<circle cx="49.5257" cy="34.8333" r="2.33137" transform="rotate(73.2432 49.5257 34.8333)" fill="black"/>
<circle cx="75.389" cy="76.626" r="2.33137" transform="rotate(73.2432 75.389 76.626)" fill="black"/>
<circle cx="81.7445" cy="97.7321" r="2.33137" transform="rotate(73.2432 81.7445 97.7321)" fill="black"/>
<circle cx="69.0335" cy="55.52" r="2.33137" transform="rotate(73.2432 69.0335 55.52)" fill="black"/>
<circle cx="75.3884" cy="76.6259" r="2.33137" transform="rotate(163.243 75.3884 76.6259)" fill="black"/>
<circle cx="54.283" cy="82.9808" r="2.33137" transform="rotate(163.243 54.283 82.9808)" fill="black"/>
<circle cx="96.4978" cy="70.2709" r="2.33137" transform="rotate(163.243 96.4978 70.2709)" fill="black"/>
<circle cx="74.2835" cy="27.3783" r="2.33137" transform="rotate(73.2432 74.2835 27.3783)" fill="black"/>
</svg>
