<svg width="235" height="215" viewBox="0 0 235 215" fill="none" xmlns="http://www.w3.org/2000/svg">
<g clip-path="url(#clip0)">
<path d="M55.708 34.3342L68.1463 54.6821C60.7633 63.0956 54.2442 69.5015 46.5332 74.5662C38.797 79.647 29.7935 83.4201 17.4102 86.4527L5 67.3222C5.40015 67.2472 5.85083 67.1596 6.34671 67.0586C8.49498 66.6239 11.4963 65.9497 14.916 64.9914C21.7294 63.082 30.3128 60.0153 37.108 55.3964C43.7767 50.8636 48.7111 45.0263 51.9703 40.3499C53.6031 38.0072 54.8237 35.9436 55.6384 34.4612C55.6619 34.4184 55.6851 34.3761 55.708 34.3342Z" stroke="white" stroke-width="4"/>
<path d="M151.81 43.5116C151.81 43.5116 150.091 51.5242 136.806 59.5338C120.04 69.6427 109.16 64.064 109.16 64.064C109.16 64.064 91.7473 80.365 87.518 56.059C83.2886 31.7531 62.7447 45.4872 62.7447 45.4872" stroke="white" stroke-width="4"/>
<path d="M137.65 17.7935L151.413 43.5962M97.7593 39.9971L109.498 64.0483L97.7593 39.9971Z" stroke="white" stroke-width="4"/>
<path d="M109.433 63.5553L109.25 63.2222L109.017 63.5222C95.5105 80.887 91.2067 106.621 100.308 128.414L100.539 128.318L100.308 128.414C107.021 144.485 120.976 169.778 139.564 188.022C158.151 206.264 181.437 217.516 206.754 205.311C230.029 194.09 235.929 170.649 234.361 146.083C232.793 121.512 223.754 95.7286 217.047 79.6681C205.845 52.849 178.317 37.8103 150.818 41.2684L150.453 41.3143L150.63 41.6368L152.088 44.2915L152.168 44.4374L152.334 44.4198C178.026 41.6759 203.531 55.8838 213.996 80.9411C220.659 96.8939 229.53 122.274 231.062 146.293C232.599 170.358 226.77 191.993 205.319 202.334C181.874 213.636 160.07 203.518 141.879 185.663C123.709 167.83 109.968 142.964 103.359 127.14L103.131 127.236L103.359 127.14C96.991 111.895 97.5399 94.5281 103.474 79.8153C105.408 75.0216 107.901 70.5368 110.892 66.5141L110.988 66.3853L110.911 66.2446L109.433 63.5553Z" fill="white" stroke="white" stroke-width="0.5"/>
<path d="M137.315 11.4356C139.044 14.7845 138.441 19.2093 135.57 23.8293C132.718 28.4205 127.746 32.9666 121.297 36.2959C114.849 39.625 108.263 41.0446 102.867 40.7112C97.4381 40.3759 93.4809 38.3054 91.7516 34.9565C90.0222 31.6077 90.626 27.1828 93.4963 22.5629C96.3491 17.9716 101.32 13.4255 107.769 10.0963C114.218 6.76709 120.804 5.34754 126.199 5.68089C131.629 6.01626 135.586 8.08673 137.315 11.4356Z" stroke="white" stroke-width="4"/>
<path d="M126.39 16.4411C126.851 17.3347 126.627 18.9878 124.844 21.254C123.147 23.4121 120.332 25.6993 116.781 27.5326C113.229 29.3659 109.734 30.3359 106.992 30.4701C104.111 30.611 102.634 29.8362 102.172 28.9427C101.711 28.0491 101.935 26.396 103.718 24.1299C105.416 21.9718 108.231 19.6846 111.782 17.8513C115.333 16.018 118.828 15.048 121.571 14.9138C124.451 14.7728 125.929 15.5476 126.39 16.4411Z" stroke="white" stroke-width="4"/>
<path d="M204.281 85.2699C205.372 87.5557 205.373 90.3535 204.238 93.5762C203.1 96.8054 200.849 100.365 197.604 104.033C191.116 111.364 180.829 118.928 168.264 124.924C155.699 130.919 143.348 134.159 133.567 134.59C128.674 134.807 124.491 134.317 121.264 133.17C118.045 132.026 115.87 130.265 114.779 127.98C113.688 125.694 113.687 122.896 114.823 119.674C115.96 116.444 118.211 112.884 121.456 109.217C127.944 101.885 138.231 94.3219 150.796 88.326C163.36 82.3301 175.712 79.0906 185.493 78.6588C190.386 78.4427 194.569 78.9326 197.795 80.0796C201.015 81.2237 203.19 82.9841 204.281 85.2699Z" stroke="white" stroke-width="4"/>
</g>
<defs>
<clipPath id="clip0">
<rect width="235" height="215" fill="white"/>
</clipPath>
</defs>
</svg>
