<svg width="214" height="103" viewBox="0 0 214 103" fill="none" xmlns="http://www.w3.org/2000/svg">
<g clip-path="url(#clip0)">
<path d="M212.475 50.0528C212.691 62.9152 201.702 75.2002 182.707 84.489C163.828 93.7206 137.53 99.7178 108.303 100.213C79.0752 100.709 52.5914 95.6065 33.4123 87.0191C14.1147 78.3794 2.71885 66.474 2.50226 53.6117C2.28569 40.7493 13.2742 28.4646 32.2699 19.1756C51.149 9.94356 77.4456 3.94651 106.674 3.45113C135.902 2.95574 162.385 8.05816 181.565 16.6452C200.862 25.2851 212.258 37.1905 212.475 50.0528Z" stroke="white" stroke-width="4"/>
<path d="M160.086 34.0201L160.118 34.0219L160.15 34.0224C167.876 34.1383 173.302 35.8148 176.726 38.66C180.087 41.453 181.73 45.5526 181.528 51.0663C181.327 56.5614 179.419 59.9158 175.975 62.0682C172.383 64.3136 166.933 65.3748 159.379 65.6818C154.436 65.8826 150.268 66.0311 146.769 65.8513C143.26 65.6711 140.576 65.1651 138.545 64.1525C136.577 63.1709 135.149 61.6764 134.198 59.3123C133.223 56.8887 132.739 53.5155 132.809 48.8021C132.867 44.881 133.523 42.026 134.646 39.9368C135.752 37.882 137.361 36.4714 139.53 35.5087C141.738 34.5296 144.544 34.0076 148.01 33.8116C151.469 33.6159 155.489 33.7487 160.086 34.0201Z" stroke="white" stroke-width="4"/>
<path d="M153.469 47.1144C153.462 44.4396 151.294 42.2777 148.628 42.2856C145.962 42.2935 143.807 44.4683 143.815 47.1431L143.83 52.2411C143.838 54.9159 146.006 57.0778 148.672 57.0699C151.338 57.062 153.492 54.8872 153.485 52.2124L153.469 47.1144Z" stroke="white" stroke-width="4"/>
</g>
<defs>
<clipPath id="clip0">
<rect width="214" height="103" fill="white"/>
</clipPath>
</defs>
</svg>
