<svg width="238" height="187" viewBox="0 0 238 187" fill="none" xmlns="http://www.w3.org/2000/svg">
<g clip-path="url(#clip0)">
<path d="M214.246 138.468C208.808 150.127 193.55 156.359 172.405 156.392C151.39 156.425 125.122 150.301 98.6283 137.947C72.135 125.594 50.5597 109.41 37.0776 93.2909C23.5119 77.0732 18.4801 61.3797 23.9178 49.7214C29.3555 38.063 44.6139 31.8306 65.7591 31.7978C86.7746 31.7651 113.042 37.8888 139.536 50.2425C166.029 62.5958 187.604 78.78 201.087 94.8987C214.652 111.117 219.684 126.81 214.246 138.468Z" stroke="white" stroke-width="4"/>
<path d="M174.169 101.114L174.197 101.13L174.225 101.144C181.121 104.631 185.265 108.515 187.096 112.572C188.895 116.554 188.577 120.96 185.981 125.828C183.394 130.681 180.21 132.861 176.171 133.288C171.958 133.733 166.594 132.301 159.668 129.269C155.136 127.285 151.325 125.593 148.257 123.899C145.182 122.201 142.99 120.57 141.607 118.771C140.268 117.026 139.639 115.058 139.819 112.516C140.004 109.91 141.046 106.665 143.173 102.458C144.942 98.9586 146.782 96.6793 148.707 95.2931C150.6 93.9298 152.664 93.3661 155.036 93.4507C157.45 93.5373 160.201 94.2967 163.403 95.6382C166.598 96.9768 170.155 98.8568 174.169 101.114Z" stroke="white" stroke-width="4"/>
<path d="M162.486 109.989C163.65 107.58 162.648 104.688 160.248 103.527C157.848 102.367 154.958 103.378 153.794 105.787L151.575 110.376C150.411 112.785 151.413 115.677 153.813 116.838C156.213 117.998 159.103 116.987 160.267 114.578L162.486 109.989Z" stroke="white" stroke-width="4"/>
</g>
<defs>
<clipPath id="clip0">
<rect x="45.1447" y="0.427456" width="214" height="103" transform="rotate(25.9699 45.1447 0.427456)" fill="white"/>
</clipPath>
</defs>
</svg>
