<svg width="296" height="142" viewBox="0 0 296 142" fill="none" xmlns="http://www.w3.org/2000/svg">
<g clip-path="url(#clip0)">
<path d="M293.89 69.0048C294.189 86.7374 278.99 103.674 252.716 116.48C226.603 129.207 190.229 137.475 149.802 138.158C109.375 138.841 72.7433 131.807 46.2151 119.968C19.5231 108.057 3.76065 91.6437 3.46108 73.9112C3.16152 56.1787 18.3606 39.2425 44.635 26.4363C70.7482 13.7086 107.121 5.44082 147.549 4.75786C187.976 4.0749 224.607 11.1093 251.136 22.9477C277.828 34.8591 293.59 51.2723 293.89 69.0048Z" stroke="white" stroke-width="4"/>
<path d="M221.428 46.9015L221.472 46.904L221.516 46.9047C232.203 47.0644 239.708 49.3757 244.443 53.2982C249.092 57.1488 251.365 62.8006 251.086 70.4021C250.808 77.9779 248.169 82.6024 243.405 85.5698C238.436 88.6653 230.898 90.1283 220.449 90.5516C213.612 90.8285 207.848 91.0332 203.007 90.7853C198.154 90.5368 194.441 89.8392 191.632 88.4432C188.91 87.09 186.935 85.0296 185.62 81.7703C184.271 78.4291 183.601 73.7786 183.698 67.2805C183.778 61.8748 184.686 57.9387 186.24 55.0585C187.769 52.2256 189.994 50.2809 192.995 48.9538C196.049 47.6039 199.93 46.8842 204.724 46.614C209.508 46.3442 215.069 46.5273 221.428 46.9015Z" stroke="white" stroke-width="4"/>
<rect x="198.902" y="58.3164" width="13.3539" height="20.3823" rx="6.67697" transform="rotate(-0.169413 198.902 58.3164)" stroke="white" stroke-width="4"/>
</g>
<defs>
<clipPath id="clip0">
<rect width="296" height="142" fill="white"/>
</clipPath>
</defs>
</svg>
