<svg width="263" height="239" viewBox="0 0 263 239" fill="none" xmlns="http://www.w3.org/2000/svg">
<path d="M237.919 139.092C232.464 150.791 217.112 157.025 195.823 157.023C174.665 157.021 148.208 150.828 121.514 138.379C94.8207 125.93 73.0722 109.642 59.4719 93.4325C45.7874 77.124 40.6956 61.356 46.1511 49.6573C51.6066 37.9586 66.9585 31.7249 88.2474 31.7266C109.406 31.7283 135.862 37.921 162.556 50.3704C189.25 62.8195 210.998 79.1075 224.599 95.3165C238.283 111.625 243.375 127.393 237.919 139.092Z" stroke="white" stroke-width="4"/>
<path d="M196.349 101.005L196.377 101.021L196.405 101.035C203.286 104.516 207.418 108.398 209.24 112.459C211.029 116.445 210.703 120.859 208.101 125.741C205.508 130.606 202.324 132.796 198.289 133.231C194.08 133.686 188.725 132.261 181.813 129.237C177.29 127.258 173.486 125.571 170.426 123.879C167.357 122.183 165.171 120.554 163.794 118.754C162.459 117.009 161.834 115.038 162.02 112.492C162.209 109.881 163.255 106.629 165.388 102.41C167.161 98.9011 169.004 96.6144 170.929 95.2221C172.823 93.8528 174.885 93.2842 177.254 93.3646C179.665 93.4467 182.411 94.2023 185.607 95.5401C188.796 96.875 192.344 98.7516 196.349 101.005Z" stroke="white" stroke-width="4"/>
<path d="M184.664 109.917C185.831 107.503 184.836 104.607 182.441 103.449C180.045 102.291 177.157 103.31 175.99 105.724L173.765 110.326C172.598 112.741 173.593 115.637 175.988 116.795C178.384 117.953 181.272 116.934 182.439 114.519L184.664 109.917Z" stroke="white" stroke-width="4"/>
</svg>
