<svg width="260" height="187" viewBox="0 0 260 187" fill="none" xmlns="http://www.w3.org/2000/svg">
<g clip-path="url(#clip0)">
<path d="M236.246 138.468C230.808 150.127 215.55 156.359 194.405 156.392C173.39 156.425 147.122 150.301 120.628 137.947C94.135 125.594 72.5597 109.41 59.0776 93.2909C45.5119 77.0732 40.4801 61.3797 45.9178 49.7214C51.3555 38.063 66.6139 31.8306 87.7591 31.7978C108.775 31.765 135.042 37.8888 161.536 50.2425C188.029 62.5958 209.604 78.78 223.087 94.8987C236.652 111.117 241.684 126.81 236.246 138.468Z" stroke="white" stroke-width="4"/>
<path d="M196.169 101.114L196.197 101.13L196.225 101.144C203.121 104.631 207.265 108.515 209.096 112.572C210.895 116.554 210.577 120.96 207.981 125.828C205.394 130.681 202.21 132.861 198.171 133.288C193.958 133.733 188.594 132.301 181.668 129.269C177.136 127.285 173.325 125.593 170.257 123.899C167.182 122.201 164.99 120.57 163.607 118.771C162.268 117.026 161.639 115.058 161.819 112.516C162.004 109.91 163.046 106.665 165.173 102.458C166.942 98.9586 168.782 96.6793 170.707 95.2931C172.6 93.9298 174.664 93.3661 177.036 93.4507C179.45 93.5373 182.201 94.2967 185.403 95.6382C188.598 96.9768 192.155 98.8568 196.169 101.114Z" stroke="white" stroke-width="4"/>
<path d="M184.486 109.989C185.65 107.58 184.648 104.688 182.248 103.527C179.848 102.367 176.958 103.378 175.794 105.787L173.575 110.376C172.411 112.785 173.413 115.677 175.813 116.838C178.213 117.998 181.103 116.987 182.267 114.578L184.486 109.989Z" stroke="white" stroke-width="4"/>
</g>
<defs>
<clipPath id="clip0">
<rect x="67.1447" y="0.427456" width="214" height="103" transform="rotate(25.9699 67.1447 0.427456)" fill="white"/>
</clipPath>
</defs>
</svg>
