<svg width="251" height="187" viewBox="0 0 251 187" fill="none" xmlns="http://www.w3.org/2000/svg">
<g clip-path="url(#clip0)">
<path d="M221.246 138.468C215.808 150.127 200.55 156.359 179.405 156.392C158.39 156.425 132.122 150.301 105.628 137.947C79.135 125.594 57.5597 109.41 44.0776 93.2909C30.5119 77.0732 25.4801 61.3797 30.9178 49.7214C36.3555 38.063 51.6139 31.8306 72.7591 31.7978C93.7746 31.765 120.042 37.8888 146.536 50.2425C173.029 62.5958 194.604 78.78 208.087 94.8987C221.652 111.117 226.684 126.81 221.246 138.468Z" stroke="white" stroke-width="4"/>
<path d="M181.169 101.114L181.197 101.13L181.225 101.144C188.121 104.631 192.265 108.515 194.096 112.572C195.895 116.554 195.577 120.96 192.981 125.828C190.394 130.681 187.21 132.861 183.171 133.288C178.958 133.733 173.594 132.301 166.668 129.269C162.136 127.285 158.325 125.593 155.257 123.899C152.182 122.201 149.99 120.57 148.607 118.771C147.268 117.026 146.639 115.058 146.819 112.516C147.004 109.91 148.046 106.665 150.173 102.458C151.942 98.9586 153.782 96.6793 155.707 95.2931C157.6 93.9298 159.664 93.3661 162.036 93.4507C164.45 93.5373 167.201 94.2967 170.403 95.6382C173.598 96.9768 177.155 98.8568 181.169 101.114Z" stroke="white" stroke-width="4"/>
<path d="M169.486 109.989C170.65 107.58 169.648 104.688 167.248 103.527C164.848 102.367 161.958 103.378 160.794 105.787L158.575 110.376C157.411 112.785 158.413 115.677 160.813 116.838C163.213 117.998 166.103 116.987 167.267 114.578L169.486 109.989Z" stroke="white" stroke-width="4"/>
</g>
<defs>
<clipPath id="clip0">
<rect x="52.1447" y="0.427456" width="214" height="103" transform="rotate(25.9699 52.1447 0.427456)" fill="white"/>
</clipPath>
</defs>
</svg>
