<svg width="263" height="239" viewBox="0 0 263 239" fill="none" xmlns="http://www.w3.org/2000/svg">
<path d="M212.697 192.626C201.002 217.554 148.704 217.538 95.886 192.592C43.0677 167.646 9.73144 127.216 21.4267 102.288" stroke="white" stroke-width="4"/>
<path d="M238.215 138.164L211.997 194.047" stroke="white" stroke-width="4"/>
<path d="M46.3132 48.4057L21.1205 103.057" stroke="white" stroke-width="4"/>
<path d="M237.583 139.358C232.095 151.074 216.738 157.267 195.468 157.179C174.328 157.092 147.915 150.772 121.284 138.172C94.6531 125.573 72.9756 109.142 59.4388 92.8234C45.818 76.4045 40.7806 60.5624 46.2681 48.8465C51.7559 37.1299 67.1137 30.9374 88.3837 31.0249C109.524 31.1121 135.936 37.4325 162.567 50.0323C189.198 62.631 210.875 79.0621 224.413 95.3809C238.033 111.8 243.07 127.642 237.583 139.358Z" stroke="white" stroke-width="4"/>
</svg>
