<svg width="223" height="166" viewBox="0 0 223 166" fill="none" xmlns="http://www.w3.org/2000/svg">
<path d="M218.154 110.03C218.519 137.508 171.459 160.414 113.043 161.19C54.6255 161.966 6.97297 140.319 6.60721 112.84" stroke="white" stroke-width="4"/>
<path d="M217.324 50.0082L218.144 111.61" stroke="white" stroke-width="4"/>
<path d="M5.46259 53.6151L6.66781 113.664" stroke="white" stroke-width="4"/>
<path d="M217.246 51.2176C217.418 64.1291 206.297 76.4197 187.116 85.6749C168.052 94.8734 141.523 100.798 112.06 101.189C82.5967 101.58 55.9198 96.363 36.6184 87.6742C17.1978 78.9323 5.75385 66.941 5.58201 54.0301C5.4101 41.1185 16.5309 28.8279 35.7119 19.5727C54.7757 10.3743 81.3039 4.44996 110.768 4.05899C140.231 3.66729 166.907 8.88464 186.209 17.5734C205.63 26.3154 217.074 38.3067 217.246 51.2176Z" stroke="white" stroke-width="4"/>
</svg>
