<svg width="265" height="240" viewBox="0 0 265 240" fill="none" xmlns="http://www.w3.org/2000/svg">
<path d="M215.859 191.132C204.154 215.996 151.816 215.981 98.9587 191.098C46.1003 166.215 12.7386 125.887 24.4428 101.023" stroke="white" stroke-width="4"/>
<path d="M241.396 136.808L215.158 192.549" stroke="white" stroke-width="4"/>
<path d="M49.3482 47.2768L24.1363 101.79" stroke="white" stroke-width="4"/>
<path d="M240.796 137.861C235.297 149.544 219.917 155.724 198.62 155.645C177.453 155.567 151.009 149.276 124.35 136.726C97.6898 124.176 75.9912 107.803 62.4436 91.5399C48.8121 75.1764 43.7747 59.3846 49.2738 47.7022C54.7732 36.019 70.1531 29.8393 91.4502 29.918C112.617 29.9963 139.061 36.2869 165.721 48.8375C192.38 61.3872 214.079 77.7595 227.627 94.0232C241.258 110.387 246.295 126.178 240.796 137.861Z" stroke="white" stroke-width="4"/>
</svg>
