<svg width="390" height="423" viewBox="0 0 390 423" fill="none" xmlns="http://www.w3.org/2000/svg">
<path d="M340.35 279.125C340.851 316.867 276.276 348.327 196.117 349.393C115.957 350.459 50.5683 320.727 50.0664 282.985" stroke="white" stroke-width="4"/>
<line x1="339.211" y1="196.686" x2="340.336" y2="281.296" stroke="white" stroke-width="4"/>
<line x1="48.4957" y1="201.64" x2="50.1495" y2="284.117" stroke="white" stroke-width="4"/>
<path d="M339.104 198.347C339.34 216.081 324.08 232.962 297.76 245.674C271.601 258.308 235.198 266.445 194.769 266.982C154.339 267.52 117.733 260.354 91.2477 248.42C64.5988 236.413 48.8954 219.943 48.6596 202.21C48.4237 184.476 63.6836 167.595 90.0038 154.883C116.163 142.249 152.565 134.112 192.995 133.575C233.424 133.037 270.03 140.203 296.516 152.137C323.165 164.144 338.868 180.614 339.104 198.347Z" stroke="white" stroke-width="4"/>
</svg>
