<svg width="295" height="246" viewBox="0 0 295 246" fill="none" xmlns="http://www.w3.org/2000/svg">
<mask id="path-2-inside-1" fill="white">
<path fill-rule="evenodd" clip-rule="evenodd" d="M264.324 65.6664C264.134 64.2116 263.848 62.7711 263.464 61.3471C254.095 26.5857 189.877 14.8442 120.028 35.1219C50.1801 55.3996 1.15193 100.018 10.521 134.779C11.0936 136.904 11.8712 138.942 12.8425 140.893C12.8852 141.098 12.9371 141.301 12.9983 141.499C16.9968 154.5 22.7829 168.74 26.3905 176.568C35.8012 196.991 100.474 211.053 169.892 193.191C239.31 175.329 283.79 133.169 274.054 98.4411C272.692 93.5855 267.963 77.3139 264.324 65.6664ZM20.6085 143.938C35.4839 116.321 78.4915 87.5647 133.251 71.6675C184.473 56.7974 232.529 57.0825 260.232 69.948C260.944 98.7914 215.733 132.799 152.502 149.109C97.0535 163.412 44.5882 161.048 20.6085 143.938Z"/>
</mask>
<path fill-rule="evenodd" clip-rule="evenodd" d="M264.324 65.6664C264.134 64.2116 263.848 62.7711 263.464 61.3471C254.095 26.5857 189.877 14.8442 120.028 35.1219C50.1801 55.3996 1.15193 100.018 10.521 134.779C11.0936 136.904 11.8712 138.942 12.8425 140.893C12.8852 141.098 12.9371 141.301 12.9983 141.499C16.9968 154.5 22.7829 168.74 26.3905 176.568C35.8012 196.991 100.474 211.053 169.892 193.191C239.31 175.329 283.79 133.169 274.054 98.4411C272.692 93.5855 267.963 77.3139 264.324 65.6664ZM20.6085 143.938C35.4839 116.321 78.4915 87.5647 133.251 71.6675C184.473 56.7974 232.529 57.0825 260.232 69.948C260.944 98.7914 215.733 132.799 152.502 149.109C97.0535 163.412 44.5882 161.048 20.6085 143.938Z" fill="black"/>
<path d="M264.324 65.6664L260.358 66.1854L260.403 66.5286L260.506 66.859L264.324 65.6664ZM263.464 61.3471L259.602 62.388L259.602 62.3881L263.464 61.3471ZM120.028 35.1219L121.144 38.9633L121.144 38.9633L120.028 35.1219ZM10.521 134.779L14.3831 133.738L14.3831 133.738L10.521 134.779ZM12.8425 140.893L16.7583 140.077L16.6531 139.572L16.4232 139.11L12.8425 140.893ZM12.9983 141.499L16.8215 140.323L16.8215 140.323L12.9983 141.499ZM26.3905 176.568L30.0234 174.894L30.0233 174.894L26.3905 176.568ZM169.892 193.191L168.895 189.317L168.895 189.317L169.892 193.191ZM274.054 98.4411L277.905 97.3613L277.905 97.3613L274.054 98.4411ZM20.6085 143.938L17.0868 142.041L15.4145 145.146L18.2852 147.194L20.6085 143.938ZM133.251 71.6675L132.136 67.8261L133.251 71.6675ZM260.232 69.948L264.231 69.8492L264.17 67.3662L261.917 66.3201L260.232 69.948ZM152.502 149.109L151.503 145.236L151.503 145.236L152.502 149.109ZM268.29 65.1473C268.077 63.5182 267.757 61.9033 267.326 60.3061L259.602 62.3881C259.939 63.6389 260.191 64.905 260.358 66.1854L268.29 65.1473ZM267.326 60.3061C262.022 40.6249 241.569 28.4911 215.146 23.6601C188.453 18.7797 154.298 21.0081 118.913 31.2805L121.144 38.9633C155.608 28.9581 188.486 26.9183 213.707 31.5296C239.197 36.1902 255.538 47.3079 259.602 62.388L267.326 60.3061ZM118.913 31.2805C83.5261 41.5538 53.2305 58.0371 32.876 76.5607C12.7323 94.8924 1.36991 116.197 6.65879 135.82L14.3831 133.738C10.303 118.6 18.7701 100.215 38.2604 82.4774C57.5398 64.9323 86.6825 48.9677 121.144 38.9633L118.913 31.2805ZM6.65879 135.82C7.30133 138.204 8.17384 140.491 9.26176 142.676L16.4232 139.11C15.5686 137.394 14.8859 135.604 14.3831 133.738L6.65879 135.82ZM16.8215 140.323C16.7974 140.245 16.7762 140.163 16.7583 140.077L8.92659 141.709C8.99427 142.034 9.07692 142.356 9.17505 142.675L16.8215 140.323ZM30.0233 174.894C26.4766 167.198 20.759 153.125 16.8215 140.323L9.17505 142.675C13.2347 155.874 19.0892 170.282 22.7577 178.242L30.0233 174.894ZM168.895 189.317C134.692 198.118 101.706 199.036 76.2219 195.279C63.4718 193.4 52.7283 190.369 44.6976 186.662C36.5184 182.885 31.7758 178.697 30.0234 174.894L22.7577 178.242C25.7106 184.651 32.5811 189.879 41.3441 193.925C50.2556 198.039 61.7835 201.237 75.0552 203.194C101.614 207.109 135.674 206.126 170.889 197.065L168.895 189.317ZM270.202 99.5209C274.473 114.755 267.059 132.515 248.946 149.199C230.957 165.768 203.121 180.511 168.895 189.317L170.889 197.065C206.082 188.009 235.194 172.741 254.366 155.083C273.412 137.539 283.37 116.855 277.905 97.3613L270.202 99.5209ZM260.506 66.859C264.131 78.4625 268.849 94.6956 270.202 99.5209L277.905 97.3613C276.535 92.4753 271.795 76.1654 268.142 64.4737L260.506 66.859ZM24.1301 145.835C31.1279 132.843 44.9947 119.197 64.151 106.763C83.2446 94.3701 107.321 83.3603 134.366 75.5089L132.136 67.8261C104.421 75.8719 79.6143 87.1889 59.7955 100.053C40.0392 112.876 24.9645 127.416 17.0868 142.041L24.1301 145.835ZM134.366 75.5089C185.172 60.7595 232.107 61.2969 258.547 73.5758L261.917 66.3201C232.951 52.8681 183.773 52.8352 132.136 67.8261L134.366 75.5089ZM153.501 152.982C185.504 144.727 213.111 131.957 232.725 117.444C252.094 103.112 264.638 86.3208 264.231 69.8492L256.233 70.0467C256.539 82.4186 246.833 97.0527 227.966 111.013C209.345 124.792 182.731 137.18 151.503 145.236L153.501 152.982ZM18.2852 147.194C31.1995 156.409 51.2286 161.345 74.5911 162.3C98.0794 163.26 125.452 160.217 153.501 152.982L151.503 145.236C124.104 152.303 97.5194 155.23 74.9178 154.307C52.1906 153.378 33.9972 148.577 22.9317 140.682L18.2852 147.194Z" fill="white" mask="url(#path-2-inside-1)"/>
<mask id="path-4-inside-2" fill="white">
<path fill-rule="evenodd" clip-rule="evenodd" d="M135.021 177.635C137.882 167.583 145.887 159.283 156.8 156.504C167.734 153.721 178.819 157.186 186.235 164.652C183.374 174.704 175.369 183.005 164.456 185.783C153.522 188.566 142.436 185.101 135.021 177.635Z"/>
</mask>
<path d="M135.021 177.635L132.133 176.808L131.652 178.494L132.892 179.742L135.021 177.635ZM156.8 156.504L157.551 159.409L156.8 156.504ZM186.235 164.652L189.123 165.479L189.604 163.793L188.364 162.545L186.235 164.652ZM164.456 185.783L165.207 188.687L164.456 185.783ZM137.909 178.463C140.49 169.397 147.708 161.915 157.551 159.409L156.049 153.6C144.066 156.651 135.274 165.77 132.133 176.808L137.909 178.463ZM157.551 159.409C167.413 156.898 177.413 160.02 184.106 166.759L188.364 162.545C180.226 154.352 168.055 150.544 156.049 153.6L157.551 159.409ZM183.346 163.824C180.766 172.891 173.548 180.372 163.705 182.878L165.207 188.687C177.19 185.637 185.981 176.517 189.123 165.479L183.346 163.824ZM163.705 182.878C153.843 185.389 143.843 182.267 137.15 175.528L132.892 179.742C141.03 187.935 153.201 191.744 165.207 188.687L163.705 182.878Z" fill="white" mask="url(#path-4-inside-2)"/>
<path fill-rule="evenodd" clip-rule="evenodd" d="M157.923 160.771C161.856 161.993 165.139 165.28 166.292 169.706C167.443 174.126 166.179 178.565 163.341 181.514C159.408 180.291 156.125 177.004 154.972 172.578C153.822 168.159 155.086 163.719 157.923 160.771Z" fill="white"/>
<mask id="path-7-inside-3" fill="white">
<path fill-rule="evenodd" clip-rule="evenodd" d="M189.175 163.317C189.563 153.389 195.1 143.944 204.56 138.967C214.03 133.986 225.036 134.74 233.552 139.998C233.163 149.926 227.627 159.371 218.166 164.348C208.696 169.33 197.691 168.575 189.175 163.317Z"/>
</mask>
<path d="M189.175 163.317L186.169 163.19L186.101 164.935L187.595 165.857L189.175 163.317ZM204.56 138.967L203.147 136.321L204.56 138.967ZM233.552 139.998L236.557 140.125L236.626 138.38L235.132 137.458L233.552 139.998ZM218.166 164.348L216.752 161.702L218.166 164.348ZM192.18 163.444C192.529 154.537 197.495 146.074 205.974 141.613L203.147 136.321C192.704 141.815 186.598 152.242 186.169 163.19L192.18 163.444ZM205.974 141.613C214.462 137.148 224.329 137.819 231.972 142.539L235.132 137.458C225.743 131.661 213.598 130.823 203.147 136.321L205.974 141.613ZM230.546 139.871C230.197 148.778 225.232 157.241 216.752 161.702L219.58 166.994C230.022 161.5 236.129 151.073 236.557 140.125L230.546 139.871ZM216.752 161.702C208.265 166.167 198.398 165.496 190.754 160.776L187.595 165.857C196.983 171.654 209.128 172.492 219.58 166.994L216.752 161.702Z" fill="white" mask="url(#path-7-inside-3)"/>
<path fill-rule="evenodd" clip-rule="evenodd" d="M206.544 142.666C210.447 142.93 214.213 145.244 216.266 149.079C218.318 152.911 218.143 157.296 216.179 160.648C212.276 160.384 208.51 158.07 206.457 154.235C204.404 150.402 204.58 146.017 206.544 142.666Z" fill="white"/>
<path fill-rule="evenodd" clip-rule="evenodd" d="M206.548 142.666C210.451 142.93 214.217 145.244 216.27 149.079C218.322 152.912 218.147 157.298 216.182 160.65C212.279 160.386 208.514 158.072 206.46 154.237C204.408 150.404 204.584 146.018 206.548 142.666Z" fill="white"/>
<mask id="path-11-inside-4" fill="white">
<path fill-rule="evenodd" clip-rule="evenodd" d="M235.865 138.394C233.788 130.683 235.882 121.54 242.141 114.426C248.403 107.311 257.251 104.021 265.231 105.028C267.307 112.739 265.214 121.881 258.954 128.995C252.693 136.111 243.844 139.4 235.865 138.394Z"/>
</mask>
<path d="M235.865 138.394L232.956 139.168L233.478 141.106L235.483 141.359L235.865 138.394ZM242.141 114.426L239.875 112.461L239.875 112.461L242.141 114.426ZM265.231 105.028L268.139 104.253L267.617 102.315L265.613 102.062L265.231 105.028ZM258.954 128.995L261.22 130.961L261.22 130.961L258.954 128.995ZM238.773 137.619C236.976 130.944 238.756 122.815 244.408 116.392L239.875 112.461C233.008 120.265 230.601 130.421 232.956 139.168L238.773 137.619ZM244.408 116.392C250.061 109.967 257.941 107.122 264.848 107.993L265.613 102.062C256.562 100.921 246.744 104.654 239.875 112.461L244.408 116.392ZM262.322 105.803C264.119 112.477 262.34 120.606 256.688 127.03L261.22 130.961C268.088 123.156 270.495 113.001 268.139 104.253L262.322 105.803ZM256.688 127.029C251.034 133.454 243.155 136.299 236.247 135.428L235.483 141.359C244.534 142.501 254.351 138.767 261.22 130.961L256.688 127.029Z" fill="white" mask="url(#path-11-inside-4)"/>
<path fill-rule="evenodd" clip-rule="evenodd" d="M244.574 116.53C247.722 115.355 251.259 115.798 253.809 118.009C256.359 120.219 257.277 123.638 256.528 126.892C253.38 128.067 249.843 127.624 247.293 125.414C244.743 123.203 243.825 119.785 244.574 116.53Z" fill="white"/>
<path fill-rule="evenodd" clip-rule="evenodd" d="M244.578 116.53C247.726 115.355 251.263 115.798 253.813 118.009C256.363 120.219 257.281 123.638 256.532 126.892C253.384 128.067 249.847 127.624 247.297 125.414C244.747 123.203 243.829 119.785 244.578 116.53Z" fill="white"/>
<mask id="path-15-inside-5" fill="white">
<path fill-rule="evenodd" clip-rule="evenodd" d="M79.124 180.839C83.75 172.288 93.0078 166.13 104.041 165.386C115.082 164.642 125.111 169.507 130.873 177.366C126.247 185.916 116.989 192.075 105.955 192.818C94.9145 193.563 84.8863 188.698 79.124 180.839Z"/>
</mask>
<path d="M79.124 180.839L76.4848 179.409L75.5816 181.079L76.705 182.611L79.124 180.839ZM104.041 165.386L103.836 162.393L104.041 165.386ZM130.873 177.366L133.512 178.795L134.415 177.126L133.292 175.594L130.873 177.366ZM105.955 192.818L105.75 189.826L105.955 192.818ZM81.7631 182.268C85.8847 174.65 94.2065 169.056 104.246 168.379L103.836 162.393C91.809 163.204 81.6154 169.927 76.4848 179.409L81.7631 182.268ZM104.246 168.379C114.293 167.702 123.318 172.133 128.454 179.138L133.292 175.594C126.903 166.88 115.872 161.582 103.836 162.393L104.246 168.379ZM128.234 175.936C124.112 183.554 115.79 189.149 105.75 189.826L106.16 195.811C118.188 195 128.382 188.278 133.512 178.795L128.234 175.936ZM105.75 189.826C95.7037 190.503 86.6787 186.071 81.5429 179.067L76.705 182.611C83.094 191.324 94.1254 196.623 106.16 195.811L105.75 189.826Z" fill="white" mask="url(#path-15-inside-5)"/>
<path fill-rule="evenodd" clip-rule="evenodd" d="M104.322 169.373C107.887 171.097 110.442 174.569 110.73 178.721C111.018 182.871 108.968 186.652 105.678 188.839C102.113 187.115 99.5579 183.643 99.2698 179.491C98.9818 175.341 101.031 171.56 104.322 169.373Z" fill="white"/>
<mask id="path-18-inside-6" fill="white">
<path fill-rule="evenodd" clip-rule="evenodd" d="M30.2878 165.05C37.1149 160.325 47.0443 159.076 56.6151 162.529C66.1719 165.977 72.9556 173.242 75.1215 181.193C68.2945 185.918 58.365 187.167 48.7942 183.714C39.2374 180.266 32.4538 173.001 30.2878 165.05Z"/>
</mask>
<path d="M30.2878 165.05L28.5806 162.591L26.8315 163.801L27.388 165.844L30.2878 165.05ZM56.6151 162.529L55.5835 165.346L56.6151 162.529ZM75.1215 181.193L76.8287 183.652L78.5778 182.442L78.0213 180.399L75.1215 181.193ZM48.7942 183.714L47.7626 186.531L48.7942 183.714ZM31.995 167.508C37.9235 163.406 46.8125 162.182 55.5835 165.346L57.6467 159.712C47.2762 155.971 36.3062 157.245 28.5806 162.591L31.995 167.508ZM55.5835 165.346C64.3414 168.506 70.3422 175.088 72.2217 181.988L78.0213 180.399C75.5689 171.395 68.0024 163.449 57.6467 159.712L55.5835 165.346ZM73.4143 178.735C67.4858 182.837 58.5968 184.061 49.8259 180.897L47.7626 186.531C58.1332 190.272 69.1031 188.998 76.8287 183.652L73.4143 178.735ZM49.8259 180.897C41.0679 177.737 35.0671 171.155 33.1876 164.255L27.388 165.844C29.8404 174.848 37.4069 182.794 47.7626 186.531L49.8259 180.897Z" fill="white" mask="url(#path-18-inside-6)"/>
<path fill-rule="evenodd" clip-rule="evenodd" d="M55.4767 165.624C57.8799 168.202 58.8379 171.711 57.6614 174.907C56.4826 178.109 53.4586 180.188 49.9349 180.624C47.5318 178.047 46.5737 174.537 47.7502 171.341C48.9291 168.139 51.953 166.061 55.4767 165.624Z" fill="white"/>
</svg>
