<svg width="295" height="246" viewBox="0 0 295 246" fill="none" xmlns="http://www.w3.org/2000/svg">
<path fill-rule="evenodd" clip-rule="evenodd" d="M265.14 53.4977C265 52.9165 264.842 52.3385 264.666 51.7641C254.679 19.1597 189.946 10.0767 120.079 31.4766C50.2126 52.8765 1.67041 96.6557 11.657 129.26C11.8398 129.857 12.0409 130.445 12.26 131.026C15.8201 142.744 22.0285 156.585 25.7103 164.794L25.7117 164.797C26.3039 166.117 26.8307 167.292 27.2706 168.288C36.0833 188.253 99.2742 200.61 167.787 181.294C236.3 161.978 280.839 119.236 272.005 85.1371C271.54 83.3428 270.985 80.3127 270.312 76.6381L270.312 76.6376C269.08 69.9124 267.453 61.0285 265.26 53.6112C265.22 53.5733 265.18 53.5355 265.14 53.4977ZM27.6507 139.141C40.5508 112.175 80.831 83.7171 133.001 67.7376C181.739 52.8094 227.979 52.7148 254.879 65.0906C247.518 94.5549 206.15 126.168 150.23 141.968C101.266 155.802 54.3985 153.767 27.6507 139.141Z" fill="#C89021"/>
<path d="M193.324 188.261C194.225 181.635 189.153 179.306 189.204 179.459C190.467 183.254 184.12 195.599 184.12 195.599L193.224 200.009C193.224 200.009 199.02 187.327 202.762 185.917C202.905 185.862 197.893 183.382 193.324 188.261Z" fill="white"/>
<path d="M172.385 195.686C167.51 191.108 169.981 186.104 170.038 186.254C171.448 189.997 184.155 195.584 184.155 195.584L179.865 204.745C179.865 204.745 167.373 198.55 163.579 199.812C163.433 199.86 165.763 194.776 172.385 195.686Z" fill="white"/>
<path d="M200.697 209.047C205.572 213.624 203.101 218.628 203.044 218.478C201.634 214.735 188.927 209.148 188.927 209.148L193.217 199.988C193.217 199.988 205.709 206.183 209.503 204.92C209.649 204.872 207.319 209.956 200.697 209.047Z" fill="white"/>
<path d="M179.758 216.473C178.857 223.099 183.929 225.428 183.878 225.276C182.615 221.481 188.962 209.136 188.962 209.136L179.858 204.726C179.858 204.726 174.062 217.408 170.32 218.818C170.177 218.872 175.189 221.352 179.758 216.473Z" fill="white"/>
</svg>
