<svg width="295" height="246" viewBox="0 0 295 246" fill="none" xmlns="http://www.w3.org/2000/svg">
<mask id="path-2-inside-1" fill="white">
<path fill-rule="evenodd" clip-rule="evenodd" d="M265.395 69.1673C265.192 67.3459 264.823 65.5518 264.284 63.7903C254.297 31.1859 189.563 22.1029 119.697 43.5028C53.3106 63.8367 6.17724 104.376 10.2132 136.334C10.1748 136.484 10.1375 136.633 10.1012 136.782C12.1331 148.255 19.3755 164.046 23.4801 172.995L23.4832 173.002C23.8737 173.854 24.2358 174.643 24.5623 175.361C34.3627 196.913 99.5592 212.493 168.977 194.631C238.395 176.769 282.351 133.09 271.98 96.5216C271.431 94.5852 270.894 91.9923 270.253 88.9009L270.253 88.9002C269.144 83.5447 267.724 76.6932 265.395 69.1673ZM29.2676 147.355C43.982 121.553 82.9011 94.9921 132.619 79.7638C180.587 65.0712 226.136 64.7477 253.208 76.5403C245.511 106.929 204.923 137.867 149.471 152.171C102.947 164.171 57.7692 161.417 29.2676 147.355Z"/>
</mask>
<path fill-rule="evenodd" clip-rule="evenodd" d="M265.395 69.1673C265.192 67.3459 264.823 65.5518 264.284 63.7903C254.297 31.1859 189.563 22.1029 119.697 43.5028C53.3106 63.8367 6.17724 104.376 10.2132 136.334C10.1748 136.484 10.1375 136.633 10.1012 136.782C12.1331 148.255 19.3755 164.046 23.4801 172.995L23.4832 173.002C23.8737 173.854 24.2358 174.643 24.5623 175.361C34.3627 196.913 99.5592 212.493 168.977 194.631C238.395 176.769 282.351 133.09 271.98 96.5216C271.431 94.5852 270.894 91.9923 270.253 88.9009L270.253 88.9002C269.144 83.5447 267.724 76.6932 265.395 69.1673ZM29.2676 147.355C43.982 121.553 82.9011 94.9921 132.619 79.7638C180.587 65.0712 226.136 64.7477 253.208 76.5403C245.511 106.929 204.923 137.867 149.471 152.171C102.947 164.171 57.7692 161.417 29.2676 147.355Z" fill="black"/>
<path d="M265.395 69.1673L261.42 69.612L261.462 69.9881L261.574 70.3497L265.395 69.1673ZM264.284 63.7903L268.108 62.6188L268.108 62.6188L264.284 63.7903ZM119.697 43.5028L118.525 39.6782L118.525 39.6782L119.697 43.5028ZM10.2132 136.334L14.0871 137.331L14.2773 136.591L14.1816 135.833L10.2132 136.334ZM10.1012 136.782L6.2146 135.836L6.01609 136.652L6.16253 137.479L10.1012 136.782ZM23.4801 172.995L27.1177 171.332L27.1159 171.328L23.4801 172.995ZM23.4832 173.002L19.8455 174.666L19.8474 174.67L23.4832 173.002ZM24.5623 175.361L28.2035 173.705L28.2035 173.705L24.5623 175.361ZM168.977 194.631L169.974 198.505L169.974 198.505L168.977 194.631ZM271.98 96.5216L268.132 97.6129L268.132 97.6129L271.98 96.5216ZM270.253 88.9009L266.307 89.5529L266.32 89.6329L266.336 89.7123L270.253 88.9009ZM270.253 88.9002L274.199 88.2481L274.186 88.1681L274.17 88.0887L270.253 88.9002ZM29.2676 147.355L25.7929 145.374L23.6888 149.063L27.4978 150.942L29.2676 147.355ZM132.619 79.7638L133.79 83.5884L133.79 83.5884L132.619 79.7638ZM253.208 76.5403L257.086 77.5225L257.92 74.2297L254.806 72.8731L253.208 76.5403ZM149.471 152.171L148.472 148.297L149.471 152.171ZM269.371 68.7227C269.14 66.6585 268.721 64.6209 268.108 62.6188L260.459 64.9617C260.925 66.4826 261.244 68.0332 261.42 69.612L269.371 68.7227ZM268.108 62.6188C262.389 43.948 241.51 33.1533 215.001 29.4337C188.137 25.6644 153.888 28.8465 118.525 39.6782L120.868 47.3274C155.371 36.7592 188.423 33.7829 213.889 37.3561C239.71 40.9792 256.191 51.0282 260.459 64.9617L268.108 62.6188ZM118.525 39.6782C84.9163 49.9725 56.0233 65.4228 35.9533 82.5138C16.1136 99.4088 3.96194 118.759 6.24468 136.836L14.1816 135.833C12.4285 121.951 21.8255 105.052 41.14 88.6046C60.2243 72.353 88.0909 57.367 120.868 47.3274L118.525 39.6782ZM13.9879 137.727C14.02 137.595 14.0531 137.463 14.0871 137.331L6.33917 135.338C6.29654 135.504 6.25501 135.67 6.2146 135.836L13.9879 137.727ZM27.1159 171.328C22.9364 162.215 15.9629 146.943 14.04 136.084L6.16253 137.479C8.30332 149.568 15.8145 165.877 19.8443 174.663L27.1159 171.328ZM27.1209 171.338L27.1177 171.332L19.8424 174.659L19.8455 174.666L27.1209 171.338ZM28.2035 173.705C27.8738 172.98 27.5089 172.184 27.119 171.334L19.8474 174.67C20.2386 175.523 20.5978 176.306 20.9211 177.017L28.2035 173.705ZM167.98 190.757C133.806 199.551 100.715 200.094 75.0692 195.83C62.2397 193.697 51.3985 190.382 43.2634 186.386C35.0011 182.327 30.0852 177.843 28.2035 173.705L20.9211 177.017C23.9396 183.655 30.8483 189.2 39.7361 193.566C48.751 197.994 60.3851 201.499 73.7571 203.722C100.514 208.171 134.73 207.574 169.974 198.505L167.98 190.757ZM268.132 97.6129C272.743 113.874 265.475 132.488 247.622 149.713C229.854 166.856 202.175 181.959 167.98 190.757L169.974 198.505C205.197 189.442 234.205 173.774 253.177 155.47C272.064 137.248 281.588 115.738 275.828 95.4302L268.132 97.6129ZM266.336 89.7123C266.965 92.7463 267.534 95.5053 268.132 97.6129L275.828 95.4302C275.327 93.6652 274.822 91.2384 274.17 88.0895L266.336 89.7123ZM266.306 89.5522L266.307 89.5529L274.2 88.2488L274.199 88.2481L266.306 89.5522ZM261.574 70.3497C263.84 77.6719 265.226 84.3525 266.336 89.7116L274.17 88.0887C273.061 82.7368 271.608 75.7145 269.217 67.9849L261.574 70.3497ZM32.7422 149.337C46.7247 124.818 84.4964 98.6869 133.79 83.5884L131.447 75.9392C81.3059 91.2973 41.2392 118.288 25.7929 145.374L32.7422 149.337ZM133.79 83.5884C181.316 69.0314 225.777 68.9544 251.611 80.2075L254.806 72.8731C226.495 60.541 179.859 61.1109 131.447 75.9392L133.79 83.5884ZM150.47 156.044C178.619 148.783 203.113 137.273 221.624 123.605C240.06 109.992 252.923 93.9581 257.086 77.5225L249.331 75.5582C245.797 89.5111 234.517 104.141 216.872 117.169C199.301 130.144 175.775 141.255 148.472 148.297L150.47 156.044ZM27.4978 150.942C57.1275 165.561 103.358 168.196 150.47 156.044L148.472 148.297C102.536 160.146 58.4108 157.273 31.0374 143.768L27.4978 150.942Z" fill="white" mask="url(#path-2-inside-1)"/>
<mask id="path-4-inside-2" fill="white">
<path fill-rule="evenodd" clip-rule="evenodd" d="M136.017 180.099C138.878 170.047 146.883 161.746 157.796 158.968C168.73 156.185 179.816 159.65 187.231 167.116C184.37 177.168 176.365 185.468 165.452 188.247C154.518 191.03 143.433 187.565 136.017 180.099Z"/>
</mask>
<path d="M136.017 180.099L133.129 179.272L132.648 180.958L133.888 182.206L136.017 180.099ZM157.796 158.968L158.547 161.873L157.796 158.968ZM187.231 167.116L190.119 167.943L190.6 166.257L189.36 165.009L187.231 167.116ZM165.452 188.247L166.203 191.151L166.203 191.151L165.452 188.247ZM138.906 180.927C141.486 171.86 148.704 164.379 158.547 161.873L157.045 156.064C145.062 159.114 136.271 168.234 133.129 179.272L138.906 180.927ZM158.547 161.873C168.409 159.362 178.409 162.484 185.102 169.223L189.36 165.009C181.222 156.816 169.051 153.007 157.045 156.064L158.547 161.873ZM184.343 166.288C181.762 175.354 174.544 182.836 164.701 185.342L166.203 191.151C178.186 188.1 186.978 178.981 190.119 167.943L184.343 166.288ZM164.701 185.342C154.839 187.853 144.839 184.731 138.146 177.992L133.888 182.206C142.026 190.399 154.197 194.208 166.203 191.151L164.701 185.342Z" fill="white" mask="url(#path-4-inside-2)"/>
<path fill-rule="evenodd" clip-rule="evenodd" d="M158.919 163.234C162.852 164.457 166.135 167.744 167.288 172.17C168.439 176.589 167.175 181.029 164.337 183.978C160.404 182.755 157.121 179.468 155.968 175.042C154.818 170.623 156.082 166.183 158.919 163.234Z" fill="white"/>
<mask id="path-7-inside-3" fill="white">
<path fill-rule="evenodd" clip-rule="evenodd" d="M190.547 165.474C190.623 155.539 195.859 145.925 205.158 140.652C214.467 135.375 225.491 135.782 234.168 140.77C234.092 150.704 228.856 160.319 219.556 165.592C210.248 170.869 199.224 170.461 190.547 165.474Z"/>
</mask>
<path d="M190.547 165.474L187.539 165.442L187.526 167.188L189.048 168.063L190.547 165.474ZM205.158 140.652L203.662 138.052L205.158 140.652ZM234.168 140.77L237.176 140.802L237.189 139.056L235.667 138.181L234.168 140.77ZM219.556 165.592L218.06 162.991L218.06 162.991L219.556 165.592ZM193.555 165.507C193.623 156.593 198.32 147.978 206.655 143.252L203.662 138.052C193.398 143.871 187.622 154.486 187.539 165.442L193.555 165.507ZM206.655 143.252C214.998 138.522 224.881 138.882 232.669 143.359L235.667 138.181C226.101 132.682 213.935 132.227 203.662 138.052L206.655 143.252ZM231.16 140.737C231.092 149.651 226.395 158.266 218.06 162.991L221.053 168.192C231.317 162.372 237.092 151.758 237.176 140.802L231.16 140.737ZM218.06 162.991C209.717 167.722 199.834 167.361 192.046 162.885L189.048 168.063C198.614 173.561 210.779 174.017 221.053 168.192L218.06 162.991Z" fill="white" mask="url(#path-7-inside-3)"/>
<path fill-rule="evenodd" clip-rule="evenodd" d="M207.256 144.286C211.166 144.427 215.003 146.621 217.176 150.389C219.348 154.156 219.311 158.544 217.453 161.956C213.543 161.815 209.707 159.621 207.534 155.852C205.362 152.086 205.399 147.697 207.256 144.286Z" fill="white"/>
<path fill-rule="evenodd" clip-rule="evenodd" d="M207.261 144.286C211.17 144.428 215.007 146.622 217.18 150.39C219.352 154.157 219.314 158.546 217.457 161.957C213.547 161.816 209.711 159.622 207.537 155.854C205.365 152.087 205.403 147.698 207.261 144.286Z" fill="white"/>
<mask id="path-11-inside-4" fill="white">
<path fill-rule="evenodd" clip-rule="evenodd" d="M236.103 139.874C233.475 132.333 234.903 123.064 240.632 115.516C246.363 107.967 254.951 104.047 262.982 104.474C265.61 112.015 264.183 121.285 258.453 128.832C252.722 136.382 244.135 140.302 236.103 139.874Z"/>
</mask>
<path d="M236.103 139.874L233.258 140.857L233.919 142.752L235.936 142.86L236.103 139.874ZM240.632 115.516L238.23 113.719L238.23 113.719L240.632 115.516ZM262.982 104.474L265.827 103.491L265.167 101.596L263.149 101.489L262.982 104.474ZM258.453 128.832L260.856 130.629L260.856 130.629L258.453 128.832ZM238.948 138.891C236.674 132.364 237.861 124.128 243.035 117.313L238.23 113.719C231.944 122 230.277 132.302 233.258 140.857L238.948 138.891ZM243.035 117.313C248.209 110.496 255.862 107.089 262.815 107.46L263.149 101.489C254.039 101.004 244.517 105.437 238.23 113.719L243.035 117.313ZM260.137 105.457C262.412 111.984 261.224 120.221 256.051 127.036L260.856 130.629C267.141 122.349 268.808 112.046 265.827 103.491L260.137 105.457ZM256.051 127.036C250.876 133.852 243.223 137.259 236.27 136.889L235.936 142.86C245.046 143.344 254.568 138.911 260.856 130.629L256.051 127.036Z" fill="white" mask="url(#path-11-inside-4)"/>
<path fill-rule="evenodd" clip-rule="evenodd" d="M243.209 117.439C246.264 116.04 249.824 116.227 252.527 118.247C255.23 120.267 256.393 123.611 255.881 126.911C252.826 128.31 249.266 128.124 246.563 126.103C243.86 124.083 242.697 120.74 243.209 117.439Z" fill="white"/>
<path fill-rule="evenodd" clip-rule="evenodd" d="M243.213 117.439C246.268 116.039 249.828 116.226 252.531 118.246C255.234 120.266 256.397 123.61 255.885 126.91C252.83 128.309 249.27 128.123 246.567 126.102C243.864 124.082 242.701 120.739 243.213 117.439Z" fill="white"/>
<mask id="path-15-inside-5" fill="white">
<path fill-rule="evenodd" clip-rule="evenodd" d="M79.0793 182.517C83.9625 174.111 93.4027 168.236 104.454 167.827C115.512 167.418 125.388 172.585 130.91 180.615C126.027 189.021 116.586 194.896 105.535 195.305C94.4767 195.715 84.6007 190.548 79.0793 182.517Z"/>
</mask>
<path d="M79.0793 182.517L76.4846 181.009L75.5313 182.65L76.6077 184.215L79.0793 182.517ZM104.454 167.827L104.34 164.83L104.454 167.827ZM130.91 180.615L133.504 182.124L134.458 180.483L133.381 178.917L130.91 180.615ZM105.535 195.305L105.421 192.307L105.421 192.307L105.535 195.305ZM81.6739 184.026C86.0246 176.537 94.5122 171.197 104.568 170.825L104.34 164.83C92.2932 165.275 81.9004 171.686 76.4846 181.009L81.6739 184.026ZM104.568 170.825C114.631 170.453 123.517 175.156 128.438 182.313L133.381 178.917C127.26 170.014 116.394 164.383 104.34 164.83L104.568 170.825ZM128.315 179.106C123.965 186.596 115.477 191.935 105.421 192.307L105.649 198.303C117.696 197.857 128.089 191.447 133.504 182.124L128.315 179.106ZM105.421 192.307C95.3583 192.68 86.4719 187.977 81.5509 180.82L76.6077 184.215C82.7295 193.118 93.5952 198.749 105.649 198.303L105.421 192.307Z" fill="white" mask="url(#path-15-inside-5)"/>
<path fill-rule="evenodd" clip-rule="evenodd" d="M104.614 171.821C108.124 173.652 110.573 177.2 110.735 181.359C110.897 185.516 108.734 189.233 105.378 191.319C101.868 189.488 99.419 185.94 99.2569 181.781C99.0949 177.624 101.258 173.907 104.614 171.821Z" fill="white"/>
<mask id="path-18-inside-6" fill="white">
<path fill-rule="evenodd" clip-rule="evenodd" d="M30.2839 165.513C37.111 160.789 47.0404 159.54 56.6112 162.993C66.168 166.441 72.9516 173.706 75.1176 181.657C68.2906 186.382 58.3611 187.63 48.7903 184.177C39.2335 180.73 32.4499 173.465 30.2839 165.513Z"/>
</mask>
<path d="M30.2839 165.513L28.5767 163.055L26.8276 164.265L27.3841 166.308L30.2839 165.513ZM56.6112 162.993L55.5796 165.81L56.6112 162.993ZM75.1176 181.657L76.8248 184.116L78.5739 182.905L78.0174 180.862L75.1176 181.657ZM48.7903 184.177L47.7587 186.994L47.7587 186.994L48.7903 184.177ZM31.9911 167.972C37.9196 163.87 46.8086 162.646 55.5796 165.81L57.6428 160.176C47.2723 156.435 36.3023 157.709 28.5767 163.055L31.9911 167.972ZM55.5796 165.81C64.3375 168.97 70.3383 175.552 72.2178 182.452L78.0174 180.862C75.565 171.859 67.9985 163.912 57.6428 160.176L55.5796 165.81ZM73.4104 179.199C67.4819 183.301 58.5929 184.525 49.822 181.36L47.7587 186.994C58.1293 190.736 69.0992 189.462 76.8248 184.116L73.4104 179.199ZM49.822 181.36C41.064 178.201 35.0632 171.618 33.1837 164.719L27.3841 166.308C29.8365 175.311 37.403 183.258 47.7587 186.994L49.822 181.36Z" fill="white" mask="url(#path-18-inside-6)"/>
<path fill-rule="evenodd" clip-rule="evenodd" d="M55.4728 166.088C57.8759 168.666 58.834 172.175 57.6575 175.371C56.4787 178.573 53.4547 180.651 49.931 181.088C47.5279 178.511 46.5698 175.001 47.7463 171.805C48.9251 168.603 51.9491 166.525 55.4728 166.088Z" fill="white"/>
</svg>
