<svg width="295" height="246" viewBox="0 0 295 246" fill="none" xmlns="http://www.w3.org/2000/svg">
<mask id="path-2-inside-1" fill="white">
<path fill-rule="evenodd" clip-rule="evenodd" d="M264.324 65.6664C264.134 64.2116 263.848 62.7711 263.464 61.3471C254.095 26.5857 189.877 14.8442 120.028 35.1219C50.1801 55.3996 1.15193 100.018 10.521 134.779C11.0936 136.904 11.8712 138.942 12.8425 140.893C12.8852 141.098 12.9372 141.301 12.9983 141.499C16.9968 154.5 22.7829 168.74 26.3905 176.568C35.8012 196.991 100.474 211.053 169.892 193.191C239.31 175.329 283.79 133.169 274.054 98.4411C272.692 93.5855 267.963 77.3139 264.324 65.6664ZM20.6085 143.938C35.4839 116.321 78.4915 87.5647 133.251 71.6675C184.473 56.7974 232.529 57.0825 260.232 69.948C260.944 98.7914 215.733 132.799 152.502 149.109C97.0535 163.412 44.5882 161.048 20.6085 143.938Z"/>
</mask>
<path fill-rule="evenodd" clip-rule="evenodd" d="M264.324 65.6664C264.134 64.2116 263.848 62.7711 263.464 61.3471C254.095 26.5857 189.877 14.8442 120.028 35.1219C50.1801 55.3996 1.15193 100.018 10.521 134.779C11.0936 136.904 11.8712 138.942 12.8425 140.893C12.8852 141.098 12.9372 141.301 12.9983 141.499C16.9968 154.5 22.7829 168.74 26.3905 176.568C35.8012 196.991 100.474 211.053 169.892 193.191C239.31 175.329 283.79 133.169 274.054 98.4411C272.692 93.5855 267.963 77.3139 264.324 65.6664ZM20.6085 143.938C35.4839 116.321 78.4915 87.5647 133.251 71.6675C184.473 56.7974 232.529 57.0825 260.232 69.948C260.944 98.7914 215.733 132.799 152.502 149.109C97.0535 163.412 44.5882 161.048 20.6085 143.938Z" fill="black"/>
<path d="M264.324 65.6664L260.358 66.1854L260.403 66.5286L260.506 66.859L264.324 65.6664ZM263.464 61.3471L259.602 62.388L259.602 62.3881L263.464 61.3471ZM120.028 35.1219L118.913 31.2805L118.913 31.2805L120.028 35.1219ZM10.521 134.779L6.65879 135.82L10.521 134.779ZM12.8425 140.893L16.7583 140.077L16.6531 139.572L16.4232 139.11L12.8425 140.893ZM12.9983 141.499L16.8215 140.323L16.8215 140.323L12.9983 141.499ZM26.3905 176.568L30.0234 174.894L30.0233 174.894L26.3905 176.568ZM169.892 193.191L168.895 189.317L168.895 189.317L169.892 193.191ZM274.054 98.4411L277.905 97.3613L277.905 97.3613L274.054 98.4411ZM20.6085 143.938L17.0868 142.041L15.4145 145.146L18.2852 147.194L20.6085 143.938ZM133.251 71.6675L132.136 67.8261L132.136 67.8261L133.251 71.6675ZM260.232 69.948L264.231 69.8492L264.17 67.3662L261.917 66.3201L260.232 69.948ZM152.502 149.109L153.501 152.982L153.501 152.982L152.502 149.109ZM268.29 65.1473C268.077 63.5182 267.757 61.9033 267.326 60.3061L259.602 62.3881C259.939 63.6389 260.191 64.905 260.358 66.1854L268.29 65.1473ZM267.326 60.3061C262.022 40.6249 241.569 28.4911 215.146 23.6601C188.453 18.7797 154.298 21.0081 118.913 31.2805L121.144 38.9633C155.608 28.9581 188.486 26.9183 213.707 31.5296C239.197 36.1902 255.538 47.3079 259.602 62.388L267.326 60.3061ZM118.913 31.2805C83.5261 41.5538 53.2305 58.0371 32.876 76.5607C12.7323 94.8924 1.36991 116.197 6.65879 135.82L14.3831 133.738C10.303 118.6 18.7701 100.215 38.2604 82.4774C57.5398 64.9323 86.6824 48.9677 121.144 38.9633L118.913 31.2805ZM6.65879 135.82C7.30133 138.204 8.17384 140.491 9.26176 142.676L16.4232 139.11C15.5686 137.394 14.8859 135.604 14.3831 133.738L6.65879 135.82ZM16.8215 140.323C16.7974 140.245 16.7762 140.163 16.7583 140.077L8.92659 141.709C8.99427 142.034 9.07691 142.356 9.17505 142.675L16.8215 140.323ZM30.0233 174.894C26.4766 167.198 20.759 153.125 16.8215 140.323L9.17505 142.675C13.2347 155.874 19.0892 170.282 22.7577 178.242L30.0233 174.894ZM168.895 189.317C134.692 198.118 101.706 199.036 76.2219 195.279C63.4718 193.4 52.7283 190.369 44.6976 186.662C36.5184 182.885 31.7758 178.697 30.0234 174.894L22.7577 178.242C25.7106 184.651 32.5811 189.879 41.3441 193.925C50.2556 198.039 61.7835 201.237 75.0552 203.194C101.614 207.109 135.674 206.126 170.889 197.065L168.895 189.317ZM270.202 99.5209C274.473 114.755 267.059 132.515 248.946 149.199C230.957 165.768 203.121 180.511 168.895 189.317L170.889 197.065C206.082 188.009 235.194 172.741 254.366 155.083C273.412 137.539 283.37 116.855 277.905 97.3613L270.202 99.5209ZM260.506 66.859C264.131 78.4625 268.849 94.6956 270.202 99.5209L277.905 97.3613C276.535 92.4753 271.795 76.1654 268.142 64.4737L260.506 66.859ZM24.1301 145.835C31.1279 132.843 44.9947 119.197 64.151 106.763C83.2446 94.3701 107.321 83.3603 134.366 75.5089L132.136 67.8261C104.421 75.8719 79.6143 87.1889 59.7955 100.053C40.0392 112.876 24.9645 127.416 17.0868 142.041L24.1301 145.835ZM134.366 75.5089C185.172 60.7595 232.107 61.2969 258.547 73.5758L261.917 66.3201C232.951 52.8681 183.773 52.8352 132.136 67.8261L134.366 75.5089ZM153.501 152.982C185.504 144.727 213.111 131.957 232.725 117.444C252.094 103.112 264.638 86.3208 264.231 69.8492L256.233 70.0467C256.539 82.4186 246.833 97.0527 227.966 111.013C209.345 124.792 182.731 137.18 151.503 145.236L153.501 152.982ZM18.2852 147.194C31.1995 156.409 51.2286 161.345 74.5911 162.3C98.0794 163.26 125.452 160.217 153.501 152.982L151.503 145.236C124.104 152.303 97.5194 155.23 74.9178 154.307C52.1906 153.378 33.9972 148.577 22.9317 140.682L18.2852 147.194Z" fill="white" mask="url(#path-2-inside-1)"/>
<path d="M266.119 112.7C266.119 112.7 260.656 122.756 257.376 123.269C253.264 124.449 248.974 122.073 247.794 117.961C246.613 113.85 248.989 109.56 253.101 108.379C255.657 107.645 266.119 112.7 266.119 112.7Z" fill="#C6983C"/>
<path d="M243.1 136.233C243.1 136.233 239.084 144.749 234.812 145.305C230.54 145.862 226.626 142.85 226.07 138.578C225.514 134.306 228.526 130.392 232.797 129.835C237.069 129.279 243.1 136.233 243.1 136.233Z" fill="#C6983C"/>
<path d="M274.821 102.07C271.027 104.047 266.35 102.574 264.373 98.7809C262.396 94.9874 263.869 90.3096 267.662 88.3327C269.561 87.3433 284.394 89.8688 284.394 89.8688C284.394 89.8688 277.154 100.854 274.821 102.07Z" fill="#C6983C"/>
<path d="M41.518 178.519C41.518 178.519 51.6562 183.12 54.7851 182.001C58.8132 180.561 60.911 176.128 59.4709 172.1C58.0308 168.072 53.5979 165.974 49.5699 167.414C46.6563 168.456 41.518 178.519 41.518 178.519Z" fill="#C6983C"/>
<path d="M76.9404 185.202C76.9404 185.202 85.1703 189.775 88.9645 187.735C92.7586 185.695 94.1802 180.965 92.1398 177.171C90.0994 173.377 85.3696 171.955 81.5755 173.995C77.7813 176.036 76.9404 185.202 76.9404 185.202Z" fill="#C6983C"/>
<path d="M26.1266 173.431C30.3845 173.02 32.5084 169.336 32.0975 165.078C31.6867 160.82 28.8968 157.6 24.6388 158.011C21.1741 158.345 10.7894 167.523 10.7424 167.037C10.7424 167.037 22.7424 173.757 26.1266 173.431Z" fill="#C6983C"/>
<circle cx="125.156" cy="178.756" r="7.5" fill="#C6983C"/>
<circle cx="167.656" cy="169.256" r="7" fill="#C6983C"/>
<circle cx="204.156" cy="155.756" r="7.5" fill="#C6983C"/>
</svg>
