<svg width="295" height="246" viewBox="0 0 295 246" fill="none" xmlns="http://www.w3.org/2000/svg">
<path d="M27.9548 137.479C39.6834 111.654 80.0864 85.0773 132.896 71.0334C187.276 56.572 236.857 60.8525 258.99 79.0363" stroke="white" stroke-width="4"/>
<path d="M258.923 54.4506L270.923 96.4515" stroke="white" stroke-width="4"/>
<path d="M17.8359 126.013L26.5174 161.363" stroke="white" stroke-width="4"/>
<path d="M66.4288 194.039L54.5632 149.187L70.1981 152.363L75.7496 174.642L81.3011 196.921L66.4288 194.039Z" stroke="white" stroke-width="4"/>
<path fill-rule="evenodd" clip-rule="evenodd" d="M124.633 37.7362C158.331 28.7748 190.348 27.0941 214.796 31.46L215.148 29.4919L214.796 31.46C239.596 35.8886 255.084 46.1746 258.684 59.7103C262.283 73.2461 253.951 89.8667 234.627 106.029L235.91 107.563L234.627 106.029C227.105 112.321 218.09 118.38 207.861 123.962L209.033 127.876C219.783 122.068 229.272 115.723 237.193 109.097C256.787 92.7092 266.785 74.6096 262.55 58.6824L262.55 58.6822C258.314 42.755 240.646 32.0127 215.5 27.5223C190.356 23.0323 157.737 24.7936 123.605 33.8706C89.4725 42.9476 60.2881 57.6215 40.6959 74.0084C21.102 90.3967 11.1041 108.496 15.3396 124.424L17.2712 123.91L15.3397 124.424C19.5752 140.351 37.2433 151.093 62.3894 155.584C87.5335 160.074 120.152 158.313 154.284 149.235C154.44 149.193 154.595 149.152 154.751 149.11L153.602 145.277C153.487 145.308 153.372 145.338 153.256 145.369L153.77 147.302L153.256 145.369C119.558 154.331 87.5419 156.012 63.0926 151.646C38.2926 147.217 22.8048 136.931 19.2053 123.396C15.6057 109.86 23.9381 93.2393 43.2622 77.0766C62.313 61.1425 90.9351 46.6976 124.633 37.7362Z" fill="white"/>
<path fill-rule="evenodd" clip-rule="evenodd" d="M268.316 94.8061C272.241 109.566 263.437 126.903 244.414 143.129C237.462 149.059 229.216 154.772 219.883 160.074L221.061 164.003C230.926 158.459 239.654 152.447 247.01 146.173C266.341 129.684 276.728 110.875 272.182 93.7782L268.316 94.8061ZM166.981 185.893L165.832 182.061C164.949 182.305 164.061 182.546 163.17 182.783C129.289 191.793 97.3657 193.598 72.957 189.259C48.3886 184.892 32.1663 174.478 28.2457 159.735L24.3801 160.763C28.9313 177.877 47.3033 188.762 72.257 193.198C97.3702 197.661 129.897 195.771 164.198 186.649C165.13 186.401 166.057 186.149 166.981 185.893Z" fill="white"/>
<path d="M193 156L152 169" stroke="white" stroke-width="3"/>
<path d="M191.907 151.698C189.929 152.6 188.97 154.972 189.766 156.996C190.561 159.019 192.81 159.928 194.789 159.026C196.767 158.124 197.726 155.752 196.93 153.728C196.135 151.705 193.886 150.796 191.907 151.698Z" fill="white"/>
<path d="M66.4288 194.039L54.5632 149.187L70.1981 152.363L75.7496 174.642L81.3011 196.921L66.4288 194.039Z" fill="black" stroke="white" stroke-width="4"/>
<path d="M228.739 131.485C226.761 132.387 225.802 134.759 226.598 136.783C227.393 138.806 229.642 139.715 231.621 138.813C233.599 137.911 234.558 135.539 233.762 133.515C232.967 131.492 230.718 130.583 228.739 131.485Z" fill="white"/>
<path d="M246.649 116.544C244.671 117.446 243.712 119.818 244.508 121.842C245.303 123.865 247.552 124.774 249.531 123.872C251.509 122.97 252.468 120.598 251.672 118.574C250.877 116.551 248.628 115.642 246.649 116.544Z" fill="white"/>
<path d="M132.009 168.743C130.031 169.645 129.072 172.017 129.868 174.041C130.663 176.064 132.912 176.973 134.891 176.071C136.869 175.169 137.828 172.797 137.032 170.773C136.237 168.75 133.988 167.841 132.009 168.743Z" fill="white"/>
<path d="M107.966 170.252C105.988 171.154 105.029 173.526 105.825 175.55C106.62 177.573 108.869 178.482 110.848 177.58C112.826 176.678 113.785 174.306 112.989 172.282C112.194 170.259 109.945 169.35 107.966 170.252Z" fill="white"/>
<path d="M220.282 166.971L166.513 187.255L152.453 142.331L207.222 122.047L220.282 166.971Z" stroke="white" stroke-width="4"/>
</svg>
