<svg width="295" height="246" viewBox="0 0 295 246" fill="none" xmlns="http://www.w3.org/2000/svg">
<path fill-rule="evenodd" clip-rule="evenodd" d="M265.14 53.4977C265 52.9165 264.842 52.3385 264.666 51.7641C254.679 19.1597 189.946 10.0767 120.079 31.4766C50.2126 52.8765 1.67041 96.6556 11.657 129.26C11.8398 129.857 12.0409 130.445 12.26 131.026C15.8201 142.744 22.0285 156.585 25.7103 164.794C26.3031 166.116 26.8304 167.291 27.2706 168.288C36.0833 188.253 99.2742 200.61 167.787 181.294C236.3 161.978 280.839 119.236 272.005 85.1371C271.54 83.3428 270.985 80.3127 270.312 76.638L270.312 76.6369C269.08 69.9117 267.453 61.0283 265.26 53.6112C265.22 53.5733 265.18 53.5354 265.14 53.4977ZM27.6507 139.141C40.5508 112.175 80.831 83.7171 133.001 67.7376C181.739 52.8094 227.979 52.7148 254.879 65.0906C247.518 94.5549 206.15 126.168 150.23 141.968C101.266 155.802 54.3985 153.767 27.6507 139.141Z" fill="#D70000"/>
<path d="M197.549 181.889L193.09 179.761L185.089 196.469L189.548 198.597L197.549 181.889Z" fill="white"/>
<path d="M203.611 184.772L199.152 182.644L191.152 199.351L195.611 201.48L203.611 184.772Z" fill="white"/>
<path d="M210.207 213.946L212.336 209.487L195.628 201.487L193.5 205.946L210.207 213.946Z" fill="white"/>
<path d="M207.329 220.005L209.457 215.546L192.749 207.546L190.621 212.004L207.329 220.005Z" fill="white"/>
<path d="M178.154 226.605L182.613 228.733L190.614 212.026L186.155 209.897L178.154 226.605Z" fill="white"/>
<path d="M172.092 223.722L176.551 225.851L184.551 209.143L180.092 207.014L172.092 223.722Z" fill="white"/>
<path d="M165.496 194.55L163.367 199.009L180.075 207.009L182.204 202.55L165.496 194.55Z" fill="white"/>
<path d="M168.375 188.491L166.246 192.95L182.954 200.951L185.082 196.492L168.375 188.491Z" fill="white"/>
</svg>
