<svg width="295" height="246" viewBox="0 0 295 246" fill="none" xmlns="http://www.w3.org/2000/svg">
<path fill-rule="evenodd" clip-rule="evenodd" d="M263.335 83.5103C265.558 77.3416 266.095 71.2253 264.709 65.3465C257.156 33.31 195.383 20.4585 126.733 36.6419C58.0834 52.8254 8.55414 91.9154 16.1064 123.952C17.695 130.691 21.6828 136.581 27.6291 141.53C37.524 114.083 80.8292 85.5979 136.881 72.3841C191.091 59.6049 241.012 64.9303 263.335 83.5103Z" fill="black"/>
<path fill-rule="evenodd" clip-rule="evenodd" d="M268.906 91.4018C269.307 93.667 269.654 95.6229 270.024 97.357C277.696 133.236 232.59 172.52 164.597 185.325C96.6036 198.129 34.7958 178.99 26.7224 157.611C26.4528 156.897 26.1532 156.111 25.83 155.264C22.4438 146.384 16.469 130.716 15.2392 119.536C15.9996 117.115 17.0491 114.725 18.3661 112.37C35.6586 141.965 93.3699 156.28 155.188 144.601C215.216 133.26 259.045 101.2 261.771 69.2191C262.911 70.2515 263.98 71.3285 264.976 72.4511C266.998 80.6325 268.071 86.6869 268.906 91.4018Z" fill="black"/>
<path d="M260.617 59.1963C264.534 73.9278 255.369 91.2879 235.91 107.563C216.589 123.724 187.686 138.283 153.77 147.302C119.855 156.322 87.5377 158.043 62.741 153.615C37.768 149.155 21.19 138.641 17.2725 123.91C13.3549 109.178 22.5201 91.818 41.9791 75.5425C61.3006 59.382 90.2038 44.8226 124.119 35.8034C158.034 26.7842 190.352 25.0632 215.148 29.4912C240.121 33.9507 256.699 44.4648 260.617 59.1963Z" stroke="white" stroke-width="4"/>
<path d="M270.249 94.2921C278.72 126.149 231.867 166.584 163.684 184.716C95.5016 202.848 34.7847 192.106 26.3129 160.249" stroke="white" stroke-width="4"/>
<path d="M27.9548 137.479C39.6834 111.654 80.0864 85.0773 132.896 71.0334C187.276 56.572 236.857 60.8525 258.99 79.0363" stroke="white" stroke-width="4"/>
<line x1="258.923" y1="54.4506" x2="270.923" y2="96.4515" stroke="white" stroke-width="4"/>
<path d="M17.8359 126.013L26.5174 161.363" stroke="white" stroke-width="4"/>
<path d="M66.4288 194.039L54.5632 149.187L70.1981 152.363L81.3011 196.921L66.4288 194.039Z" fill="black" stroke="white" stroke-width="4"/>
<rect x="2.45663" y="1.24068" width="54.1698" height="46.0149" transform="matrix(0.941296 -0.337582 0.287021 0.957924 152.437 142.966)" fill="black" stroke="white" stroke-width="4"/>
<path d="M192.856 155.586L157.142 168.474" stroke="white" stroke-width="3"/>
<ellipse rx="3.93714" ry="3.93714" transform="matrix(-0.909854 0.414928 -0.36593 -0.930642 193.348 155.362)" fill="white"/>
<ellipse rx="3.93714" ry="3.93714" transform="matrix(-0.909854 0.414928 -0.36593 -0.930642 230.18 135.149)" fill="white"/>
<ellipse rx="3.93714" ry="3.93714" transform="matrix(-0.909854 0.414928 -0.36593 -0.930642 248.09 120.208)" fill="white"/>
<ellipse rx="3.93714" ry="3.93714" transform="matrix(-0.909854 0.414928 -0.36593 -0.930642 133.45 172.407)" fill="white"/>
<ellipse rx="3.93714" ry="3.93714" transform="matrix(-0.909854 0.414928 -0.36593 -0.930642 109.407 173.916)" fill="white"/>
</svg>
