<svg width="239" height="188" viewBox="0 0 239 188" fill="none" xmlns="http://www.w3.org/2000/svg">
<path d="M213.678 142.075C207.922 153.38 192.541 159.133 171.149 158.399C149.936 157.672 123.589 150.548 97.1992 137.113C70.8095 123.677 49.5484 106.563 36.4804 89.8374C23.3021 72.971 18.9051 57.1481 24.6606 45.8432C30.4161 34.5383 45.7979 28.7851 67.1896 29.5188C88.4022 30.2464 114.75 37.3702 141.139 50.8056C167.529 64.241 188.79 81.3555 201.858 98.0807C215.036 114.947 219.433 130.77 213.678 142.075Z" stroke="white" stroke-width="4"/>
<path d="M168.271 95.2649L168.307 95.2898L168.344 95.3131C175.603 99.8613 179.592 104.509 181.306 108.863C182.995 113.154 182.566 117.392 180.508 121.42C178.12 126.091 174.066 128.724 168.84 129.305C163.529 129.894 156.918 128.358 149.71 124.38C144.864 121.705 140.81 119.44 137.584 117.253C134.349 115.058 132.125 113.056 130.81 110.98C129.547 108.986 129.062 106.83 129.504 104.115C129.96 101.313 131.414 97.8676 134.192 93.4347C136.493 89.7619 138.729 87.4754 140.939 86.1774C143.102 84.9065 145.368 84.5066 147.923 84.8368C150.534 85.1742 153.472 86.2795 156.881 88.0908C160.281 89.8978 164.034 92.3437 168.271 95.2649Z" stroke="white" stroke-width="4"/>
<rect x="142.102" y="108.09" width="15" height="7" rx="3" transform="rotate(-59.3162 142.102 108.09)" stroke="white" stroke-width="4"/>
</svg>
