<svg width="295" height="249" viewBox="0 0 295 249" fill="none" xmlns="http://www.w3.org/2000/svg">
<mask id="path-2-inside-1" fill="white">
<path fill-rule="evenodd" clip-rule="evenodd" d="M265.14 53.4977C265 52.9165 264.842 52.3385 264.666 51.7641C254.679 19.1597 189.946 10.0767 120.079 31.4766C50.2126 52.8765 1.67041 96.6556 11.657 129.26C11.8398 129.857 12.0409 130.445 12.26 131.026C15.8201 142.744 22.0285 156.585 25.7103 164.794C26.3031 166.116 26.8304 167.291 27.2706 168.288C36.0833 188.253 99.2742 200.61 167.787 181.294C236.3 161.978 280.839 119.236 272.005 85.1371C271.54 83.3428 270.985 80.3127 270.312 76.638L270.312 76.6369C269.08 69.9117 267.453 61.0283 265.26 53.6112C265.22 53.5733 265.18 53.5354 265.14 53.4977ZM27.6507 139.141C40.5508 112.175 80.831 83.7171 133.001 67.7376C181.739 52.8094 227.979 52.7148 254.879 65.0906C247.518 94.5549 206.15 126.168 150.23 141.968C101.266 155.802 54.3985 153.767 27.6507 139.141Z"/>
</mask>
<path fill-rule="evenodd" clip-rule="evenodd" d="M265.14 53.4977C265 52.9165 264.842 52.3385 264.666 51.7641C254.679 19.1597 189.946 10.0767 120.079 31.4766C50.2126 52.8765 1.67041 96.6556 11.657 129.26C11.8398 129.857 12.0409 130.445 12.26 131.026C15.8201 142.744 22.0285 156.585 25.7103 164.794C26.3031 166.116 26.8304 167.291 27.2706 168.288C36.0833 188.253 99.2742 200.61 167.787 181.294C236.3 161.978 280.839 119.236 272.005 85.1371C271.54 83.3428 270.985 80.3127 270.312 76.638L270.312 76.6369C269.08 69.9117 267.453 61.0283 265.26 53.6112C265.22 53.5733 265.18 53.5354 265.14 53.4977ZM27.6507 139.141C40.5508 112.175 80.831 83.7171 133.001 67.7376C181.739 52.8094 227.979 52.7148 254.879 65.0906C247.518 94.5549 206.15 126.168 150.23 141.968C101.266 155.802 54.3985 153.767 27.6507 139.141Z" fill="#D70000"/>
<path d="M265.14 53.4977L261.251 54.4332L261.53 55.5936L262.399 56.4113L265.14 53.4977ZM264.666 51.7641L268.491 50.5927L268.491 50.5926L264.666 51.7641ZM120.079 31.4766L118.908 27.652L118.908 27.652L120.079 31.4766ZM11.657 129.26L7.83243 130.431L7.83243 130.432L11.657 129.26ZM12.26 131.026L16.0872 129.863L16.049 129.738L16.0026 129.615L12.26 131.026ZM25.7103 164.794L29.36 163.157L29.36 163.157L25.7103 164.794ZM27.2706 168.288L30.9299 166.673L30.9299 166.673L27.2706 168.288ZM167.787 181.294L166.702 177.444L166.702 177.444L167.787 181.294ZM272.005 85.1371L275.877 84.1339L275.877 84.1339L272.005 85.1371ZM270.312 76.638L274.247 75.9175L274.243 75.898L274.239 75.8786L270.312 76.638ZM270.312 76.6369L266.377 77.3574L266.381 77.3769L266.385 77.3963L270.312 76.6369ZM265.26 53.6112L269.095 52.4767L268.792 51.4497L268.015 50.7119L265.26 53.6112ZM27.6507 139.141L24.0423 137.414L22.4073 140.832L25.7315 142.65L27.6507 139.141ZM133.001 67.7376L131.83 63.9129L131.83 63.9129L133.001 67.7376ZM254.879 65.0906L258.76 66.0601L259.563 62.8428L256.551 61.4568L254.879 65.0906ZM150.23 141.968L151.317 145.817L151.317 145.817L150.23 141.968ZM269.029 52.5622C268.87 51.9017 268.691 51.2451 268.491 50.5927L260.841 52.9354C260.993 53.4319 261.13 53.9312 261.251 54.4332L269.029 52.5622ZM268.491 50.5926C262.772 31.9218 241.892 21.1271 215.383 17.4075C188.519 13.6381 154.271 16.8203 118.908 27.652L121.251 35.3012C155.754 24.733 188.806 21.7567 214.272 25.3299C240.093 28.953 256.574 39.0019 260.841 52.9355L268.491 50.5926ZM118.908 27.652C83.5444 38.4836 53.3889 55.0283 33.2442 73.1962C13.3658 91.1242 2.11362 111.761 7.83243 130.431L15.4817 128.089C11.2138 114.155 19.2395 96.5998 38.6021 79.137C57.6986 61.9144 86.7474 45.8695 121.251 35.3012L118.908 27.652ZM7.83243 130.432C8.04002 131.109 8.26848 131.778 8.51744 132.438L16.0026 129.615C15.8133 129.113 15.6396 128.604 15.4817 128.089L7.83243 130.432ZM29.36 163.157C25.6554 154.898 19.5601 141.294 16.0872 129.863L8.43276 132.189C12.0801 144.194 18.4016 158.273 22.0606 166.431L29.36 163.157ZM30.9299 166.673C30.4839 165.663 29.9512 164.475 29.36 163.157L22.0606 166.431C22.6549 167.756 23.1768 168.92 23.6112 169.904L30.9299 166.673ZM166.702 177.444C132.939 186.963 100.55 188.654 75.6355 185.552C63.1688 184 52.71 181.265 44.9358 177.805C37.0089 174.277 32.5286 170.295 30.9299 166.673L23.6112 169.904C26.4189 176.264 33.1422 181.313 41.6832 185.114C50.3769 188.983 61.6503 191.873 74.6471 193.491C100.66 196.73 134.123 194.941 168.873 185.144L166.702 177.444ZM268.133 86.1403C272.001 101.071 264.354 118.858 246.172 135.835C228.139 152.673 200.483 167.92 166.702 177.444L168.873 185.144C203.604 175.352 232.475 159.569 251.631 141.683C270.638 123.935 280.843 103.302 275.877 84.1339L268.133 86.1403ZM266.378 77.3586C267.036 80.9536 267.622 84.1684 268.133 86.1403L275.877 84.1339C275.458 82.5172 274.934 79.6717 274.247 75.9175L266.378 77.3586ZM266.385 77.3963L266.385 77.3975L274.239 75.8786L274.239 75.8774L266.385 77.3963ZM261.424 54.7456C263.546 61.9209 265.137 70.5861 266.377 77.3574L274.246 75.9163C273.023 69.2373 271.361 60.1356 269.095 52.4767L261.424 54.7456ZM262.399 56.4113C262.434 56.4446 262.469 56.4777 262.504 56.5105L268.015 50.7119C267.97 50.6688 267.925 50.6262 267.88 50.5841L262.399 56.4113ZM31.2591 140.867C37.29 128.26 49.965 114.89 67.8617 102.618C85.6943 90.3902 108.431 79.4468 134.173 71.5622L131.83 63.9129C105.401 72.0079 81.9126 83.2832 63.3375 96.0203C44.8266 108.714 30.9115 123.056 24.0423 137.414L31.2591 140.867ZM134.173 71.5622C182.475 56.7673 227.583 56.9359 253.207 68.7245L256.551 61.4568C228.374 48.4937 181.003 48.8514 131.83 63.9129L134.173 71.5622ZM151.317 145.817C179.676 137.805 204.454 125.756 223.15 111.864C241.749 98.0449 254.759 82.0731 258.76 66.0601L250.998 64.1212C247.638 77.5725 236.283 92.1395 218.378 105.443C200.57 118.674 176.703 130.332 149.142 138.119L151.317 145.817ZM25.7315 142.65C53.7783 157.987 101.858 159.791 151.317 145.817L149.142 138.119C100.675 151.812 55.0187 149.548 29.5699 135.631L25.7315 142.65Z" fill="black" mask="url(#path-2-inside-1)"/>
<path d="M173.269 186.365L197.075 236.383M210.137 199.595L160.119 223.401M159.017 202.06L211.219 220.594M194.442 185.345L175.908 237.546M157.485 209.126L212.705 213.518M187.376 183.812L182.984 239.032M157.833 216.348L212.308 206.298M180.154 184.16L190.203 238.635M163.951 229.314L206.103 193.373M167.187 190.278L203.128 232.43M169.304 234.175L200.718 188.549M162.327 195.631L207.953 227.044M183.882 187.293L186.487 235.528M209.213 210.207L160.978 212.812M167.18 195.213L203.129 227.479M201.026 193.296L168.76 229.245M163.595 200.402L206.67 222.264M196.105 189.921L174.243 232.996M161.477 206.341L208.743 216.31M190.167 187.802L180.199 235.067M162.104 218.827L208.021 203.828M177.681 188.428L192.681 234.345M164.805 224.524L205.276 198.152M171.983 191.13L198.356 231.6" stroke="#C6983C" stroke-width="1.5"/>
<rect x="182.531" y="203.633" width="11.5834" height="11.5834" transform="rotate(26.9072 182.531 203.633)" fill="black"/>
<path d="M95.8045 192.181L80.4114 150.135L100.044 148.963L113.804 191.236L95.8045 192.181Z" fill="#D70000" stroke="black" stroke-width="4"/>
</svg>
