<svg width="295" height="246" viewBox="0 0 295 246" fill="none" xmlns="http://www.w3.org/2000/svg">
<mask id="path-2-inside-1" fill="white">
<path fill-rule="evenodd" clip-rule="evenodd" d="M265.14 53.4977C265 52.9165 264.842 52.3385 264.666 51.7641C254.679 19.1597 189.946 10.0767 120.079 31.4766C50.2126 52.8765 1.67041 96.6556 11.657 129.26C11.8398 129.857 12.0409 130.445 12.26 131.026C15.8201 142.744 22.0285 156.585 25.7103 164.794C26.3031 166.116 26.8304 167.291 27.2706 168.288C36.0833 188.253 99.2742 200.61 167.787 181.294C236.3 161.978 280.839 119.236 272.005 85.1371C271.54 83.3428 270.985 80.3127 270.312 76.638L270.312 76.6369C269.08 69.9117 267.453 61.0283 265.26 53.6112C265.22 53.5733 265.18 53.5354 265.14 53.4977ZM27.6507 139.141C40.5508 112.175 80.831 83.7171 133.001 67.7376C181.739 52.8094 227.979 52.7148 254.879 65.0906C247.518 94.5549 206.15 126.168 150.23 141.968C101.266 155.802 54.3985 153.767 27.6507 139.141Z"/>
</mask>
<path fill-rule="evenodd" clip-rule="evenodd" d="M265.14 53.4977C265 52.9165 264.842 52.3385 264.666 51.7641C254.679 19.1597 189.946 10.0767 120.079 31.4766C50.2126 52.8765 1.67041 96.6556 11.657 129.26C11.8398 129.857 12.0409 130.445 12.26 131.026C15.8201 142.744 22.0285 156.585 25.7103 164.794C26.3031 166.116 26.8304 167.291 27.2706 168.288C36.0833 188.253 99.2742 200.61 167.787 181.294C236.3 161.978 280.839 119.236 272.005 85.1371C271.54 83.3428 270.985 80.3127 270.312 76.638L270.312 76.6369C269.08 69.9117 267.453 61.0283 265.26 53.6112C265.22 53.5733 265.18 53.5354 265.14 53.4977ZM27.6507 139.141C40.5508 112.175 80.831 83.7171 133.001 67.7376C181.739 52.8094 227.979 52.7148 254.879 65.0906C247.518 94.5549 206.15 126.168 150.23 141.968C101.266 155.802 54.3985 153.767 27.6507 139.141Z" fill="black"/>
<path d="M265.14 53.4977L261.251 54.4332L261.53 55.5936L262.399 56.4113L265.14 53.4977ZM264.666 51.7641L268.491 50.5927L268.491 50.5926L264.666 51.7641ZM120.079 31.4766L118.908 27.652L118.908 27.652L120.079 31.4766ZM11.657 129.26L7.83243 130.431L7.83243 130.432L11.657 129.26ZM12.26 131.026L16.0872 129.863L16.049 129.738L16.0026 129.615L12.26 131.026ZM25.7103 164.794L29.36 163.157L29.36 163.157L25.7103 164.794ZM27.2706 168.288L30.9299 166.673L30.9299 166.673L27.2706 168.288ZM167.787 181.294L166.702 177.444L166.702 177.444L167.787 181.294ZM272.005 85.1371L275.877 84.1339L275.877 84.1339L272.005 85.1371ZM270.312 76.638L274.247 75.9175L274.243 75.898L274.239 75.8786L270.312 76.638ZM270.312 76.6369L266.377 77.3574L266.381 77.3769L266.385 77.3963L270.312 76.6369ZM265.26 53.6112L269.095 52.4767L268.792 51.4497L268.015 50.7119L265.26 53.6112ZM27.6507 139.141L24.0423 137.414L22.4073 140.832L25.7315 142.65L27.6507 139.141ZM133.001 67.7376L131.83 63.9129L131.83 63.9129L133.001 67.7376ZM254.879 65.0906L258.76 66.0601L259.563 62.8428L256.551 61.4568L254.879 65.0906ZM150.23 141.968L151.317 145.817L151.317 145.817L150.23 141.968ZM269.029 52.5622C268.87 51.9017 268.691 51.2451 268.491 50.5927L260.841 52.9354C260.993 53.4319 261.13 53.9312 261.251 54.4332L269.029 52.5622ZM268.491 50.5926C262.772 31.9218 241.892 21.1271 215.383 17.4075C188.519 13.6381 154.271 16.8203 118.908 27.652L121.251 35.3012C155.754 24.733 188.806 21.7567 214.272 25.3299C240.093 28.953 256.574 39.0019 260.841 52.9355L268.491 50.5926ZM118.908 27.652C83.5444 38.4836 53.3889 55.0283 33.2442 73.1962C13.3658 91.1242 2.11362 111.761 7.83243 130.431L15.4817 128.089C11.2138 114.155 19.2395 96.5998 38.6021 79.137C57.6986 61.9144 86.7474 45.8695 121.251 35.3012L118.908 27.652ZM7.83243 130.432C8.04002 131.109 8.26848 131.778 8.51744 132.438L16.0026 129.615C15.8133 129.113 15.6396 128.604 15.4817 128.089L7.83243 130.432ZM29.36 163.157C25.6554 154.898 19.5601 141.294 16.0872 129.863L8.43276 132.189C12.0801 144.194 18.4016 158.273 22.0606 166.431L29.36 163.157ZM30.9299 166.673C30.4839 165.663 29.9512 164.475 29.36 163.157L22.0606 166.431C22.6549 167.756 23.1768 168.92 23.6112 169.904L30.9299 166.673ZM166.702 177.444C132.939 186.963 100.55 188.654 75.6355 185.552C63.1688 184 52.71 181.265 44.9358 177.805C37.0089 174.277 32.5286 170.295 30.9299 166.673L23.6112 169.904C26.4189 176.264 33.1422 181.313 41.6832 185.114C50.3769 188.983 61.6503 191.873 74.6471 193.491C100.66 196.73 134.123 194.941 168.873 185.144L166.702 177.444ZM268.133 86.1403C272.001 101.071 264.354 118.858 246.172 135.835C228.139 152.673 200.483 167.92 166.702 177.444L168.873 185.144C203.604 175.352 232.475 159.569 251.631 141.683C270.638 123.935 280.843 103.302 275.877 84.1339L268.133 86.1403ZM266.378 77.3586C267.036 80.9536 267.622 84.1684 268.133 86.1403L275.877 84.1339C275.458 82.5172 274.934 79.6717 274.247 75.9175L266.378 77.3586ZM266.385 77.3963L266.385 77.3975L274.239 75.8786L274.239 75.8774L266.385 77.3963ZM261.424 54.7456C263.546 61.9209 265.137 70.5861 266.377 77.3574L274.246 75.9163C273.023 69.2373 271.361 60.1356 269.095 52.4767L261.424 54.7456ZM262.399 56.4113C262.434 56.4446 262.469 56.4777 262.504 56.5105L268.015 50.7119C267.97 50.6688 267.925 50.6262 267.88 50.5841L262.399 56.4113ZM31.2591 140.867C37.29 128.26 49.965 114.89 67.8617 102.618C85.6943 90.3902 108.431 79.4468 134.173 71.5622L131.83 63.9129C105.401 72.0079 81.9126 83.2832 63.3375 96.0203C44.8266 108.714 30.9115 123.056 24.0423 137.414L31.2591 140.867ZM134.173 71.5622C182.475 56.7673 227.583 56.9359 253.207 68.7245L256.551 61.4568C228.374 48.4937 181.003 48.8514 131.83 63.9129L134.173 71.5622ZM151.317 145.817C179.676 137.805 204.454 125.756 223.15 111.864C241.749 98.0449 254.759 82.0731 258.76 66.0601L250.998 64.1212C247.638 77.5725 236.283 92.1395 218.378 105.443C200.57 118.674 176.703 130.332 149.142 138.119L151.317 145.817ZM25.7315 142.65C53.7783 157.987 101.858 159.791 151.317 145.817L149.142 138.119C100.675 151.812 55.0187 149.548 29.5699 135.631L25.7315 142.65Z" fill="#D70000" mask="url(#path-2-inside-1)"/>
<path d="M176.268 214.011C177.85 213.427 178.678 211.723 178.117 210.205C177.557 208.686 175.821 207.928 174.239 208.512C172.657 209.095 171.829 210.799 172.39 212.318C172.95 213.837 174.687 214.595 176.268 214.011Z" fill="white"/>
<path d="M181.971 216.465C183.553 215.882 184.381 214.177 183.821 212.659C183.26 211.14 181.524 210.382 179.942 210.966C178.36 211.549 177.532 213.254 178.093 214.772C178.653 216.291 180.39 217.049 181.971 216.465Z" fill="white"/>
<path d="M173.565 219.574C175.147 218.99 175.975 217.286 175.414 215.767C174.854 214.248 173.117 213.49 171.536 214.074C169.954 214.658 169.126 216.362 169.687 217.881C170.247 219.399 171.983 220.157 173.565 219.574Z" fill="white"/>
<path d="M179.256 222.034C180.838 221.45 181.666 219.746 181.106 218.227C180.545 216.708 178.809 215.95 177.227 216.534C175.645 217.118 174.818 218.822 175.378 220.341C175.938 221.859 177.675 222.617 179.256 222.034Z" fill="white"/>
<path d="M170.835 225.185C172.416 224.601 173.244 222.897 172.684 221.378C172.123 219.86 170.387 219.102 168.805 219.685C167.224 220.269 166.396 221.973 166.956 223.492C167.516 225.011 169.253 225.769 170.835 225.185Z" fill="white"/>
<path d="M176.546 227.642C178.127 227.058 178.955 225.354 178.395 223.835C177.834 222.317 176.098 221.559 174.516 222.142C172.935 222.726 172.107 224.43 172.667 225.949C173.227 227.468 174.964 228.226 176.546 227.642Z" fill="white"/>
<path d="M188.96 187.547C190.541 186.964 191.369 185.259 190.809 183.741C190.248 182.222 188.512 181.464 186.93 182.048C185.349 182.631 184.521 184.336 185.081 185.854C185.641 187.373 187.378 188.131 188.96 187.547Z" fill="white"/>
<path d="M194.663 190.001C196.244 189.418 197.072 187.713 196.512 186.195C195.952 184.676 194.215 183.918 192.633 184.502C191.052 185.085 190.224 186.79 190.784 188.308C191.345 189.827 193.081 190.585 194.663 190.001Z" fill="white"/>
<path d="M186.256 193.11C187.838 192.526 188.666 190.822 188.106 189.303C187.545 187.785 185.809 187.027 184.227 187.61C182.645 188.194 181.818 189.898 182.378 191.417C182.938 192.935 184.675 193.693 186.256 193.11Z" fill="white"/>
<path d="M191.948 195.57C193.53 194.986 194.358 193.282 193.797 191.763C193.237 190.245 191.5 189.487 189.919 190.07C188.337 190.654 187.509 192.358 188.069 193.877C188.63 195.395 190.366 196.153 191.948 195.57Z" fill="white"/>
<path d="M183.526 198.721C185.108 198.137 185.936 196.433 185.375 194.915C184.815 193.396 183.078 192.638 181.497 193.222C179.915 193.805 179.087 195.509 179.647 197.028C180.208 198.547 181.944 199.305 183.526 198.721Z" fill="white"/>
<path d="M189.237 201.178C190.819 200.594 191.647 198.89 191.086 197.372C190.526 195.853 188.789 195.095 187.208 195.679C185.626 196.262 184.798 197.966 185.358 199.485C185.919 201.004 187.655 201.762 189.237 201.178Z" fill="white"/>
<path d="M165.005 196.375C163.424 196.958 161.687 196.2 161.127 194.682C160.566 193.163 161.394 191.459 162.976 190.875C164.558 190.291 166.294 191.049 166.854 192.568C167.415 194.087 166.587 195.791 165.005 196.375Z" fill="white"/>
<path d="M162.263 201.947C160.681 202.531 158.945 201.773 158.385 200.254C157.824 198.735 158.652 197.031 160.234 196.447C161.815 195.864 163.552 196.622 164.112 198.14C164.673 199.659 163.845 201.363 162.263 201.947Z" fill="white"/>
<path d="M170.673 198.85C169.092 199.434 167.355 198.676 166.795 197.157C166.234 195.639 167.062 193.934 168.644 193.351C170.226 192.767 171.962 193.525 172.522 195.044C173.083 196.562 172.255 198.267 170.673 198.85Z" fill="white"/>
<path d="M167.943 204.419C166.361 205.002 164.625 204.244 164.064 202.726C163.504 201.207 164.332 199.503 165.913 198.919C167.495 198.335 169.232 199.093 169.792 200.612C170.352 202.131 169.524 203.835 167.943 204.419Z" fill="white"/>
<path d="M176.392 201.341C174.81 201.925 173.074 201.167 172.513 199.648C171.953 198.13 172.781 196.426 174.363 195.842C175.944 195.258 177.681 196.016 178.241 197.535C178.802 199.054 177.974 200.758 176.392 201.341Z" fill="white"/>
<path d="M173.654 206.92C172.072 207.503 170.336 206.745 169.775 205.227C169.215 203.708 170.043 202.004 171.624 201.42C173.206 200.836 174.943 201.594 175.503 203.113C176.063 204.632 175.235 206.336 173.654 206.92Z" fill="white"/>
<path d="M192.068 208.178C190.486 208.762 188.75 208.004 188.189 206.485C187.629 204.967 188.457 203.262 190.038 202.679C191.62 202.095 193.357 202.853 193.917 204.372C194.477 205.89 193.649 207.595 192.068 208.178Z" fill="white"/>
<path d="M189.326 213.751C187.744 214.334 186.007 213.576 185.447 212.058C184.887 210.539 185.715 208.835 187.296 208.251C188.878 207.667 190.614 208.425 191.175 209.944C191.735 211.463 190.907 213.167 189.326 213.751Z" fill="white"/>
<path d="M197.736 210.654C196.154 211.238 194.418 210.48 193.857 208.961C193.297 207.442 194.125 205.738 195.706 205.154C197.288 204.571 199.025 205.329 199.585 206.847C200.145 208.366 199.317 210.07 197.736 210.654Z" fill="white"/>
<path d="M195.005 216.222C193.424 216.806 191.687 216.048 191.127 214.529C190.566 213.011 191.394 211.306 192.976 210.723C194.558 210.139 196.294 210.897 196.854 212.416C197.415 213.934 196.587 215.639 195.005 216.222Z" fill="white"/>
<path d="M203.454 213.145C201.873 213.729 200.136 212.971 199.576 211.452C199.016 209.934 199.843 208.229 201.425 207.646C203.007 207.062 204.743 207.82 205.304 209.339C205.864 210.857 205.036 212.562 203.454 213.145Z" fill="white"/>
<path d="M200.716 218.723C199.135 219.307 197.398 218.549 196.838 217.03C196.277 215.512 197.105 213.807 198.687 213.224C200.269 212.64 202.005 213.398 202.565 214.917C203.126 216.435 202.298 218.14 200.716 218.723Z" fill="white"/>
</svg>
