<svg width="234" height="271" viewBox="0 0 234 271" fill="none" xmlns="http://www.w3.org/2000/svg">
<path fill-rule="evenodd" clip-rule="evenodd" d="M106.575 248.207C113.204 238.468 112.752 225.997 106.378 216.884L188.454 96.2937C199.27 98.8806 211.037 94.7258 217.666 84.9862C226.233 72.3985 222.974 55.2488 210.387 46.6814C199.199 39.0668 184.407 40.7945 175.241 50.1106C180.543 38.166 176.724 23.7735 165.537 16.1595C152.949 7.5921 135.8 10.8512 127.232 23.439C120.603 33.1784 121.054 45.6488 127.429 54.762L45.355 175.349C34.5385 172.762 22.7712 176.916 16.142 186.656C7.57462 199.244 10.8337 216.394 23.4215 224.961C34.6095 232.576 49.4014 230.848 58.568 221.531C53.2631 233.477 57.0817 247.871 68.27 255.486C80.8577 264.054 98.0073 260.795 106.575 248.207Z" fill="#C6983C"/>
<circle cx="38.3173" cy="202.285" r="4.89151" transform="rotate(124.24 38.3173 202.285)" fill="black"/>
<circle cx="83.1649" cy="232.81" r="4.89151" transform="rotate(124.24 83.1649 232.81)" fill="black"/>
<circle cx="149.407" cy="39.064" r="4.89151" transform="rotate(124.24 149.407 39.064)" fill="black"/>
<circle cx="89.3993" cy="174.654" r="4.89151" transform="rotate(124.24 89.3993 174.654)" fill="black"/>
<circle cx="141.442" cy="98.1896" r="4.89151" transform="rotate(124.24 141.442 98.1896)" fill="black"/>
<circle cx="115.419" cy="136.425" r="4.89151" transform="rotate(-145.76 115.419 136.425)" fill="black"/>
<circle cx="194.259" cy="69.59" r="4.89151" transform="rotate(124.24 194.259 69.59)" fill="black"/>
</svg>
