<svg width="370" height="339" viewBox="0 0 370 339" fill="none" xmlns="http://www.w3.org/2000/svg">
<path d="M76.6494 54.089L94.3863 83.1082C83.8582 95.1071 74.562 104.243 63.5663 111.466C52.5346 118.712 39.6957 124.093 22.0373 128.418L4.34058 101.135C4.91119 101.028 5.55385 100.903 6.26097 100.759C9.32437 100.139 13.6042 99.1776 18.4807 97.8109C28.1964 95.0878 40.4362 90.7141 50.1261 84.1269C59.6355 77.6624 66.672 69.3375 71.3195 62.6683C73.6478 59.3272 75.3884 56.3842 76.5502 54.2701C76.5837 54.209 76.6168 54.1487 76.6494 54.089Z" stroke="white" stroke-width="4"/>
<path d="M213.689 67.1774C213.689 67.1774 209.893 77.7548 187.578 90.1846C171.918 98.9072 152.871 96.4882 152.871 96.4882C152.871 96.4882 128.041 119.736 122.01 85.0719C115.979 50.4079 86.6837 69.9949 86.6837 69.9949" stroke="white" stroke-width="4"/>
<path d="M136.614 62.1651L153.353 96.4659M193.497 30.4993L213.123 67.298" stroke="white" stroke-width="4"/>
<path fill-rule="evenodd" clip-rule="evenodd" d="M151.529 94.3553C131.072 117.978 123.041 154.17 134.32 185.765C151.003 232.495 206.126 333.854 279.65 303.067C347.219 274.772 320.228 172.082 303.546 125.352C289.665 86.4702 251.745 63.0766 212.482 65.9245L214.359 69.8148C251.304 67.829 286.703 90.0713 299.778 126.696C308.072 149.928 318.813 186.785 319.192 221.167C319.573 255.609 309.629 286.177 278.105 299.377C243.664 313.799 213.222 297.621 188.618 270.782C164.041 243.972 146.32 207.479 138.088 184.42C130.131 162.133 132.228 137.344 141.82 116.759C144.946 110.051 148.849 103.825 153.431 98.2962L151.529 94.3553Z" fill="white"/>
<path d="M193.02 21.432C195.486 26.208 194.625 32.5185 190.532 39.1073C186.464 45.6551 179.375 52.1386 170.179 56.8866C160.983 61.6345 151.592 63.659 143.898 63.1836C136.156 62.7053 130.513 59.7525 128.047 54.9765C125.581 50.2005 126.442 43.89 130.535 37.3012C134.603 30.7534 141.692 24.2699 150.888 19.5219C160.084 14.774 169.475 12.7495 177.169 13.2249C184.911 13.7032 190.554 16.656 193.02 21.432Z" stroke="white" stroke-width="4"/>
<path d="M177.441 28.5707C178.099 29.8451 177.779 32.2026 175.237 35.4346C172.816 38.5123 168.802 41.7742 163.738 44.3888C158.674 47.0034 153.69 48.3867 149.779 48.5781C145.672 48.7791 143.565 47.6741 142.907 46.3998C142.249 45.1255 142.569 42.7679 145.111 39.536C147.532 36.4583 151.546 33.1964 156.61 30.5818C161.674 27.9672 166.658 26.5839 170.569 26.3925C174.676 26.1914 176.783 27.2964 177.441 28.5707Z" stroke="white" stroke-width="4"/>
<path d="M287.433 124.473C289.208 127.911 289.343 132.183 287.764 137.158C286.181 142.143 282.915 147.686 278.136 153.442C268.582 164.946 253.237 176.987 234.341 186.743C215.445 196.498 196.743 202.035 181.831 203.162C174.371 203.726 167.961 203.178 162.98 201.582C158.01 199.989 154.605 197.404 152.83 193.967C151.055 190.529 150.92 186.256 152.5 181.282C154.082 176.296 157.348 170.753 162.128 164.998C171.682 153.493 187.026 141.453 205.922 131.697C224.818 121.941 243.52 116.404 258.432 115.277C265.892 114.713 272.302 115.261 277.283 116.858C282.253 118.451 285.658 121.035 287.433 124.473Z" stroke="white" stroke-width="4"/>
</svg>
