<svg width="74" height="13" viewBox="0 0 74 13" fill="none" xmlns="http://www.w3.org/2000/svg">
<path d="M20.335 11.4629V7.02441C20.335 6.7168 20.2739 6.49219 20.1519 6.35059C20.0347 6.20898 19.8467 6.13818 19.5879 6.13818C19.3291 6.13818 19.1387 6.20898 19.0166 6.35059C18.8945 6.49219 18.8335 6.7168 18.8335 7.02441V11.4629C18.8335 11.7705 18.8921 11.9951 19.0093 12.1367C19.1313 12.2783 19.3242 12.3491 19.5879 12.3491C19.8467 12.3491 20.0347 12.2783 20.1519 12.1367C20.2739 11.9951 20.335 11.7705 20.335 11.4629ZM24.041 0.974609C24.041 1.00879 24.0435 1.0625 24.0483 1.13574C24.0532 1.2041 24.0557 1.25537 24.0557 1.28955C24.0557 2.27588 23.7871 3.0376 23.25 3.57471C22.7178 4.11182 21.9609 4.38037 20.9795 4.38037C20.75 4.38037 20.4058 4.37061 19.9468 4.35107C19.4927 4.33154 19.1582 4.32178 18.9434 4.32178C17.7861 4.32178 16.9194 4.6123 16.3433 5.19336C15.7671 5.77441 15.4692 6.6582 15.4497 7.84473C15.689 7.20508 16.1748 6.70215 16.9072 6.33594C17.6445 5.96484 18.5381 5.7793 19.5879 5.7793C20.96 5.7793 22.0586 6.09668 22.8838 6.73145C23.7139 7.36621 24.1289 8.20361 24.1289 9.24365C24.1289 10.2837 23.7139 11.1235 22.8838 11.7632C22.0586 12.4028 20.96 12.7227 19.5879 12.7227C17.9863 12.7227 16.8096 12.3394 16.0576 11.5728C15.3105 10.8013 14.937 9.6001 14.937 7.96924C14.937 5.8208 15.3057 4.24365 16.043 3.23779C16.7803 2.23193 17.9326 1.729 19.5 1.729C19.8662 1.729 20.3521 1.7583 20.9575 1.81689C21.563 1.87549 21.9805 1.90479 22.21 1.90479C22.625 1.90479 22.9375 1.83643 23.1475 1.69971C23.3623 1.55811 23.521 1.31641 23.6235 0.974609H24.041ZM30.0176 8.92871V6.48242C30.0176 6.14551 29.9565 5.89893 29.8345 5.74268C29.7124 5.58643 29.522 5.5083 29.2632 5.5083C29.0093 5.5083 28.8213 5.58643 28.6992 5.74268C28.5771 5.89893 28.5161 6.14551 28.5161 6.48242V8.92871H30.0176ZM33.5259 9.26562L28.5161 9.27295V10.1592C28.5161 10.8184 28.6602 11.3188 28.9482 11.6606C29.2363 11.9976 29.6562 12.166 30.208 12.166C30.7744 12.166 31.2847 12.0366 31.7388 11.7778C32.1978 11.519 32.6226 11.1187 33.0132 10.5767L33.2988 10.7744C32.9326 11.4238 32.4126 11.9121 31.7388 12.2393C31.0698 12.5615 30.2495 12.7227 29.2778 12.7227C27.9204 12.7227 26.834 12.376 26.0186 11.6826C25.2031 10.9844 24.7954 10.0664 24.7954 8.92871C24.7954 7.80078 25.1982 6.89014 26.0039 6.19678C26.8145 5.49854 27.8765 5.14941 29.1899 5.14941C30.5718 5.14941 31.6362 5.50586 32.3833 6.21875C33.1304 6.93164 33.5112 7.94727 33.5259 9.26562ZM41.9707 10.5767L42.2417 10.7744C41.9146 11.4092 41.4287 11.8926 40.7842 12.2246C40.1445 12.5566 39.3706 12.7227 38.4624 12.7227C37.1831 12.7227 36.1602 12.376 35.3936 11.6826C34.627 10.9893 34.2437 10.0713 34.2437 8.92871C34.2437 7.78125 34.6294 6.86572 35.4009 6.18213C36.1724 5.49365 37.2124 5.14941 38.521 5.14941C39.7222 5.14941 40.6523 5.35449 41.3115 5.76465C41.9707 6.16992 42.3003 6.74365 42.3003 7.48584C42.3003 8.02783 42.1514 8.4502 41.8535 8.75293C41.5605 9.05078 41.1504 9.19971 40.623 9.19971C40.1494 9.19971 39.7734 9.06543 39.4951 8.79688C39.2168 8.52344 39.0776 8.15723 39.0776 7.69824C39.0776 7.41504 39.1265 7.18066 39.2241 6.99512C39.3218 6.80469 39.4829 6.64355 39.7075 6.51172C39.7563 6.48242 39.8247 6.44336 39.9126 6.39453C40.1714 6.25293 40.3008 6.10645 40.3008 5.95508C40.3008 5.83301 40.23 5.73291 40.0884 5.65479C39.9517 5.57666 39.7686 5.5376 39.5391 5.5376C38.9971 5.5376 38.604 5.78418 38.3599 6.27734C38.1157 6.76562 37.9937 7.56885 37.9937 8.68701C37.9937 9.99072 38.123 10.8843 38.3818 11.3677C38.6455 11.8511 39.1021 12.0928 39.7515 12.0928C40.1372 12.0928 40.5181 11.9658 40.894 11.7119C41.27 11.4531 41.6289 11.0747 41.9707 10.5767ZM50.3713 12.437H44.6657V12.0342H45.779V5.73535C45.2224 5.75 44.7585 5.94043 44.3874 6.30664C44.0163 6.66797 43.7453 7.20264 43.5744 7.91064H43.2009V5.35449H51.8361V7.91064H51.4479C51.2771 7.20264 51.0085 6.66797 50.6423 6.30664C50.2761 5.94043 49.8146 5.75 49.258 5.73535V12.0342H50.3713V12.437ZM57.699 12.437V12.0342H58.1751V7.29541L56.7981 12.0342H57.2742V12.437H52.4329V12.0342H53.3191V5.73535H52.4329V5.35449H57.2742V5.73535H56.7981V10.4741L58.1751 5.73535H57.699V5.35449H62.5403V5.73535H61.6541V12.0342H62.5403V12.437H57.699ZM68.9159 8.47461V5.73535H68.601C68.2885 5.73535 68.0517 5.81348 67.8905 5.96973C67.7343 6.12598 67.6562 6.36279 67.6562 6.68018V7.54443C67.6562 7.88623 67.7343 8.12793 67.8905 8.26953C68.0468 8.40625 68.308 8.47461 68.6742 8.47461H68.9159ZM73.2812 12.0342V12.437H68.0443V12.0342H68.9159V8.85547H68.7401C68.3837 8.85547 68.1322 8.94092 67.9857 9.11182C67.8441 9.27783 67.7733 9.57568 67.7733 10.0054V10.4595C67.7733 11.2163 67.5634 11.7827 67.1435 12.1587C66.7284 12.5347 66.0985 12.7227 65.2538 12.7227C64.7509 12.7227 64.3041 12.6323 63.9135 12.4517C63.5277 12.2759 63.225 12.022 63.0053 11.6899L63.2909 11.4629C63.369 11.585 63.4545 11.6802 63.5473 11.7485C63.64 11.8169 63.7304 11.8511 63.8183 11.8511C63.8915 11.8511 63.9452 11.834 63.9794 11.7998C64.0136 11.7656 64.0453 11.6924 64.0746 11.5801C64.0844 11.5312 64.0941 11.3408 64.1039 11.0088C64.1137 10.6719 64.1674 10.3838 64.265 10.1445C64.4506 9.6709 64.7436 9.32422 65.1439 9.10449C65.5492 8.88477 66.0912 8.7749 66.7699 8.7749V8.58447C65.8324 8.54541 65.1464 8.40137 64.7118 8.15234C64.2772 7.89844 64.06 7.52246 64.06 7.02441C64.06 6.43848 64.3285 6.01367 64.8656 5.75C65.4076 5.48633 66.289 5.35449 67.5097 5.35449H73.2812V5.73535H72.3949V12.0342H73.2812Z" fill="white"/>
<path d="M0.931248 3.02779L0 3.94116L3.49145 7.36559L4.4227 6.45222L0.931248 3.02779Z" fill="white"/>
<path d="M2.19297 1.78536L1.26172 2.69873L4.75317 6.12317L5.68442 5.20979L2.19297 1.78536Z" fill="white"/>
<path d="M11.3096 10.7631L7.83203 7.35229L5.63349 9.50863L9.11104 12.9194L11.3096 10.7631Z" fill="white"/>
<path d="M9.05944 4.06787C9.99024 2.29887 8.77471 1.14119 8.77368 1.18892C8.74986 2.37909 5.67896 5.21031 5.67896 5.21031L7.8377 7.35302C7.8377 7.35302 10.7854 4.37252 11.9999 4.34916C12.0465 4.34815 10.8631 3.15392 9.05944 4.06787Z" fill="white"/>
<path d="M3.3445 9.17601C3.81225 9.17601 4.19144 8.8041 4.19144 8.34533C4.19144 7.88656 3.81225 7.51465 3.3445 7.51465C2.87675 7.51465 2.49756 7.88656 2.49756 8.34533C2.49756 8.8041 2.87675 9.17601 3.3445 9.17601Z" fill="white"/>
<path d="M4.59303 10.3884C5.06078 10.3884 5.43997 10.0165 5.43997 9.55773C5.43997 9.09896 5.06078 8.72705 4.59303 8.72705C4.12528 8.72705 3.74609 9.09896 3.74609 9.55773C3.74609 10.0165 4.12528 10.3884 4.59303 10.3884Z" fill="white"/>
<path d="M2.1067 10.3894C2.57446 10.3894 2.95364 10.0175 2.95364 9.55871C2.95364 9.09993 2.57446 8.72803 2.1067 8.72803C1.63895 8.72803 1.25977 9.09993 1.25977 9.55871C1.25977 10.0175 1.63895 10.3894 2.1067 10.3894Z" fill="white"/>
<path d="M3.35475 11.602C3.8225 11.602 4.20169 11.2301 4.20169 10.7714C4.20169 10.3126 3.8225 9.94067 3.35475 9.94067C2.887 9.94067 2.50781 10.3126 2.50781 10.7714C2.50781 11.2301 2.887 11.602 3.35475 11.602Z" fill="white"/>
<path d="M0.858658 11.6142C1.32641 11.6142 1.7056 11.2423 1.7056 10.7836C1.7056 10.3248 1.32641 9.95288 0.858658 9.95288C0.390906 9.95288 0.0117188 10.3248 0.0117188 10.7836C0.0117188 11.2423 0.390906 11.6142 0.858658 11.6142Z" fill="white"/>
<path d="M2.1067 12.8266C2.57446 12.8266 2.95364 12.4547 2.95364 11.996C2.95364 11.5372 2.57446 11.1653 2.1067 11.1653C1.63895 11.1653 1.25977 11.5372 1.25977 11.996C1.25977 12.4547 1.63895 12.8266 2.1067 12.8266Z" fill="white"/>
</svg>
